<svg width="710" height="1000" viewBox="0 0 710 1000" fill="none" xmlns="http://www.w3.org/2000/svg">
<rect width="710" height="1000" fill="#99B9FF"/>
<g clip-path="url(#clip0_24_331)">
<path d="M406.109 247C389.707 246.975 240.067 249.26 158.297 372.762C114.774 438.502 85.5699 546.001 128.235 604.574C140.835 621.871 147.438 618.065 214.786 659.009C307.232 715.208 306.8 729.677 345.068 742.536C394.888 759.276 468.498 759.24 523.639 718.136C586.205 671.492 595.458 593.986 604.724 516.355C613.819 440.17 623.034 362.979 574.66 306.127C524.508 247.188 443.907 247.061 406.109 247Z" fill="white"/>
<path d="M599.61 584.998L310.218 544.738C302.953 543.81 297.507 537.626 297.507 530.297L293.537 328.372C293.537 328.372 300.135 323.614 303.873 321.792C305.775 320.864 307.965 320.457 310.246 320.748L598.776 357.556C606.041 358.484 611.487 364.669 611.487 371.997V570.327C611.487 573.875 609.868 577.005 607.359 579.068C605.047 580.965 599.61 584.998 599.61 584.998Z" fill="#99B9FF"/>
<path d="M590.779 587.679L302.248 550.87C294.983 549.942 289.537 543.758 289.537 536.429V338.102C289.537 331.286 295.517 326.018 302.276 326.882L590.806 363.691C598.071 364.619 603.517 370.804 603.517 378.132V576.462C603.517 583.275 597.537 588.543 590.779 587.679Z" fill="white"/>
<path d="M584.646 579.506L309.142 544.359C303.859 543.686 299.897 539.188 299.897 533.859V342.55C299.897 338 303.893 334.479 308.406 335.056L583.91 370.203C589.192 370.876 593.154 375.373 593.154 380.702V572.008C593.154 576.562 589.159 580.082 584.646 579.506Z" fill="#CADDFF"/>
<path d="M592.207 588.684C591.692 588.684 591.177 588.651 590.662 588.587L302.131 551.779C294.429 550.795 288.623 544.198 288.623 536.432V338.102C288.623 334.59 290.135 331.247 292.768 328.926C295.401 326.605 298.909 325.531 302.392 325.974L590.922 362.783C598.624 363.766 604.43 370.363 604.43 378.129V576.459C604.43 579.971 602.919 583.314 600.286 585.635C598.04 587.613 595.164 588.684 592.207 588.684ZM590.894 586.773C593.857 587.15 596.839 586.236 599.079 584.264C601.318 582.292 602.603 579.448 602.603 576.462V378.129C602.603 371.28 597.481 365.464 590.692 364.597L302.159 327.788C299.199 327.411 296.215 328.325 293.975 330.3C291.735 332.272 290.45 335.117 290.45 338.102V536.432C290.45 543.281 295.572 549.098 302.364 549.965L590.894 586.773Z" fill="#5479F7"/>
<path d="M422.449 704.481L125.707 666.199C123.384 665.902 122.075 663.955 122.105 662.011C122.124 660.671 122.235 651.22 122.235 651.22L279.138 561.489C286.998 556.997 297.17 555.263 306.149 556.412L599.143 594.221C600.906 594.448 602.418 595.592 603.118 597.229L603.589 598.331C603.589 598.331 603.337 606.211 603.439 608.053C603.52 609.493 602.872 610.977 601.363 611.839L448.4 699.329C440.54 703.825 431.431 705.633 422.449 704.481Z" fill="#99B9FF"/>
<path d="M162.204 660.335L126.768 655.757C122.842 655.253 121.812 650.046 125.248 648.083L277.391 561.157C285.251 556.664 294.363 554.859 303.342 556.008L599.024 594.218C602.95 594.722 603.98 599.929 600.544 601.893L448.4 688.819C440.54 693.311 431.428 695.117 422.449 693.967L162.204 660.335Z" fill="white"/>
<path d="M480.34 645.714L223.945 612.34C220.401 611.886 219.468 607.183 222.572 605.41L282.857 571.313C289.958 567.255 298.184 565.624 306.296 566.663L562.691 600.037C566.235 600.491 567.168 605.194 564.064 606.967L503.779 641.064C496.68 645.122 488.452 646.753 480.34 645.714Z" fill="#CADDFF"/>
<path d="M427.674 695.214C425.891 695.214 424.108 695.1 422.333 694.873L277.537 676.297C277.036 676.233 276.682 675.774 276.748 675.272C276.812 674.771 277.274 674.422 277.77 674.48L422.568 693.059C431.295 694.178 440.307 692.389 447.949 688.024L600.092 601.098C601.57 600.253 601.867 598.783 601.648 597.686C601.432 596.589 600.596 595.343 598.907 595.127L303.225 556.914C294.501 555.795 285.483 557.584 277.845 561.949L256.529 574.13C256.091 574.379 255.532 574.227 255.28 573.789C255.028 573.352 255.183 572.792 255.621 572.54L276.937 560.359C284.921 555.797 294.343 553.931 303.458 555.097L599.14 593.307C601.324 593.587 603.013 595.165 603.439 597.326C603.868 599.486 602.908 601.588 600.997 602.682L448.854 689.608C442.422 693.286 435.06 695.214 427.674 695.214Z" fill="#99B9FF"/>
<path d="M561.713 570.108L333.85 541.279C329.926 540.783 326.748 537.022 326.748 532.879V254.733C326.748 250.589 329.926 247.634 333.85 248.13L561.713 276.959C565.636 277.455 568.815 281.216 568.815 285.36V563.508C568.815 567.649 565.636 570.607 561.713 570.108Z" fill="#99B9FF"/>
<path d="M562.571 571.078C562.25 571.078 561.926 571.056 561.599 571.017L333.736 542.188C329.378 541.636 325.834 537.462 325.834 532.881V254.733C325.834 252.398 326.725 250.326 328.342 248.9C329.868 247.554 331.867 246.961 333.966 247.224L561.829 276.057C566.187 276.608 569.731 280.782 569.731 285.363V563.511C569.731 565.846 568.839 567.918 567.222 569.344C565.932 570.477 564.307 571.078 562.571 571.078ZM561.826 569.203C563.399 569.402 564.883 568.965 566.01 567.97C567.228 566.896 567.898 565.311 567.898 563.508V285.36C567.898 281.668 565.071 278.308 561.597 277.868L333.733 249.039C332.16 248.836 330.676 249.277 329.55 250.271C328.331 251.346 327.661 252.93 327.661 254.733V532.881C327.661 536.573 330.488 539.933 333.963 540.373L561.826 569.203Z" fill="#292525"/>
<path d="M526.199 416.229L369.95 396.459C368.316 396.251 366.99 394.687 366.99 392.961V377.961C366.99 376.235 368.316 375.003 369.95 375.21L526.199 394.98C527.833 395.188 529.159 396.753 529.159 398.481V413.481C529.159 415.204 527.833 416.437 526.199 416.229Z" fill="white"/>
<path d="M527.382 458.879L369.953 438.96C368.643 438.793 367.583 437.539 367.583 436.157V419.91C367.583 418.528 368.643 417.542 369.953 417.708L527.382 437.627C528.691 437.794 529.752 439.048 529.752 440.43V456.677C529.749 458.059 528.689 459.045 527.382 458.879Z" fill="white"/>
<path d="M502.823 500.153L393.328 486.299C391.532 486.072 390.075 484.349 390.075 482.452V468.072C390.075 466.174 391.532 464.82 393.328 465.047L502.823 478.901C504.62 479.128 506.077 480.851 506.077 482.748V497.128C506.077 499.025 504.62 500.38 502.823 500.153Z" fill="#CADDFF"/>
<path d="M472.708 357.763C486.469 346.064 486.923 323.985 473.723 308.448C460.523 292.911 438.668 289.799 424.907 301.498C411.146 313.197 410.692 335.276 423.892 350.813C437.092 366.351 458.947 369.462 472.708 357.763Z" fill="#5479F7"/>
<path d="M456.563 334.588C461.366 330.505 461.524 322.798 456.917 317.374C452.309 311.951 444.681 310.864 439.878 314.948C435.075 319.031 434.917 326.738 439.524 332.161C444.132 337.585 451.761 338.671 456.563 334.588Z" fill="white"/>
<path d="M423.528 350.386C427.651 346.29 432.657 342.277 437.989 339.878C439.276 339.299 440.805 339.319 442.217 339.939C447.643 342.324 451.866 342.052 456.556 340.861C457.694 340.573 458.956 340.778 460.044 341.457C465.908 345.115 470.98 349.81 474.84 355.759C459.601 371.081 435.195 365.644 423.528 350.386Z" fill="white"/>
<path d="M448.804 366.087C428.958 363.68 412.812 345.367 412.812 325.268C412.812 305.169 428.958 290.775 448.804 293.184C468.65 295.591 484.797 313.904 484.797 334.004C484.797 354.1 468.65 368.494 448.804 366.087ZM448.804 296.153C430.575 293.94 415.744 307.163 415.744 325.623C415.744 344.082 430.575 360.902 448.804 363.115C467.033 365.328 481.865 352.106 481.865 333.646C481.865 315.186 467.033 298.366 448.804 296.153Z" fill="#CADDFF"/>
<path d="M159.102 500.543C150.658 503.678 143.49 510.275 138.611 518.964C126.164 541.129 93.6789 606.095 109.045 656.259C127.866 717.706 286.984 716.061 328.453 689.91C338.988 683.266 382.096 638.444 326.767 601.189C276.053 567.04 255.092 592.108 231.708 578.653C208.324 565.198 191.432 511.203 182.805 503.531C177.234 498.576 168.566 497.031 159.102 500.543Z" fill="#5479F7"/>
<path d="M208.049 648.404C207.817 648.404 207.581 648.315 207.404 648.135C186.379 627.116 137.482 624.626 136.992 624.604C136.488 624.582 136.097 624.153 136.122 623.649C136.144 623.144 136.585 622.765 137.077 622.776C139.112 622.87 187.176 625.324 208.7 646.839C209.057 647.196 209.057 647.775 208.7 648.132C208.517 648.315 208.282 648.404 208.049 648.404Z" fill="#99B9FF"/>
<path d="M257.307 649.559C257.182 649.559 257.057 649.534 256.936 649.478C240.54 642.183 228.967 648.725 228.85 648.794C228.416 649.049 227.856 648.902 227.602 648.465C227.347 648.03 227.494 647.47 227.928 647.216C228.429 646.922 240.382 640.109 257.678 647.808C258.14 648.013 258.348 648.553 258.14 649.016C257.993 649.357 257.658 649.559 257.307 649.559Z" fill="#99B9FF"/>
<path d="M331.979 688.442C332.125 688.924 349.692 708.783 349.692 708.783L337.981 713.394L323.836 696.169L331.979 688.442Z" fill="white"/>
<path d="M337.981 714.311C337.712 714.311 337.452 714.192 337.275 713.976L323.13 696.751C322.825 696.38 322.859 695.837 323.207 695.508L331.35 687.78C331.58 687.561 331.907 687.481 332.214 687.559C332.46 687.625 332.665 687.789 332.784 688.007C333.493 689.015 343.662 700.584 350.379 708.176C350.576 708.4 350.653 708.705 350.584 708.996C350.515 709.287 350.307 709.525 350.03 709.633L338.319 714.244C338.205 714.291 338.092 714.311 337.981 714.311ZM325.082 696.247L338.263 712.3L348.142 708.409C337.128 695.951 333.266 691.467 331.89 689.785L325.082 696.247Z" fill="#292525"/>
<path d="M337.782 705.309C338.233 704.315 339.014 703.179 340.357 702.456C342.38 701.368 344.886 701.739 346.653 703.21C351.069 706.888 363.049 717.291 369.829 727.25C372.224 730.771 370.828 735.252 365.133 734.945C355.797 734.441 341.057 730.037 329.036 718.817C327.657 717.529 327.009 715.629 327.358 713.773C327.643 712.258 328.105 710.364 328.847 708.583C329.556 706.88 331.414 705.96 333.205 706.387L334.819 706.772C336.026 707.06 337.267 706.445 337.782 705.309Z" fill="white"/>
<path d="M365.695 735.875C365.496 735.875 365.294 735.87 365.083 735.859C355.266 735.327 340.476 730.749 328.41 719.487C326.782 717.967 326.051 715.77 326.455 713.607C326.832 711.599 327.352 709.788 327.997 708.234C328.878 706.115 331.153 704.963 333.41 705.5L335.024 705.885C335.802 706.068 336.613 705.672 336.946 704.935C337.604 703.481 338.634 702.346 339.922 701.653C342.206 700.424 345.146 700.77 347.234 702.512C351.993 706.475 363.799 716.773 370.582 726.741C372.016 728.849 372.26 731.308 371.219 733.155C370.632 734.194 369.148 735.875 365.695 735.875ZM332.308 707.195C331.176 707.195 330.135 707.857 329.686 708.932C329.088 710.372 328.606 712.056 328.252 713.942C327.961 715.485 328.487 717.058 329.656 718.149C341.364 729.076 355.684 733.515 365.18 734.031C367.34 734.153 368.915 733.516 369.627 732.253C370.324 731.015 370.111 729.295 369.07 727.763C362.417 717.989 350.767 707.827 346.065 703.911C344.543 702.642 342.422 702.382 340.788 703.26C339.844 703.769 339.111 704.584 338.612 705.686C337.92 707.218 336.228 708.051 334.603 707.661L332.989 707.276C332.759 707.223 332.532 707.195 332.308 707.195Z" fill="#292525"/>
<path d="M363.193 731.255C357.777 731.255 347.558 728.946 331.417 716.706C331.015 716.402 330.935 715.828 331.24 715.424C331.544 715.022 332.117 714.945 332.521 715.247C356.98 733.792 367.027 728.846 367.124 728.793C367.57 728.558 368.124 728.727 368.359 729.175C368.594 729.621 368.425 730.175 367.977 730.411C367.816 730.499 366.291 731.255 363.193 731.255Z" fill="#292525"/>
<path d="M353.048 720.753C352.827 720.753 352.603 720.673 352.428 720.509C352.057 720.166 352.035 719.587 352.378 719.216L357.118 714.098C357.462 713.726 358.04 713.704 358.411 714.048C358.782 714.391 358.804 714.97 358.461 715.341L353.721 720.459C353.538 720.656 353.295 720.753 353.048 720.753Z" fill="#292525"/>
<path d="M348.853 717.305C348.621 717.305 348.388 717.216 348.208 717.039C347.851 716.684 347.848 716.103 348.203 715.745L353.421 710.48C353.776 710.123 354.355 710.12 354.714 710.475C355.072 710.829 355.074 711.411 354.72 711.768L349.501 717.03C349.324 717.213 349.089 717.305 348.853 717.305Z" fill="#292525"/>
<path d="M295.343 699.064L289.947 722.758L281.079 716.003L285.18 693.228L295.343 699.064Z" fill="white"/>
<path d="M289.947 723.672C289.751 723.672 289.554 723.609 289.394 723.487L280.526 716.731C280.252 716.524 280.119 716.18 280.18 715.842L284.28 693.068C284.333 692.774 284.524 692.525 284.795 692.4C285.066 692.275 285.379 692.286 285.637 692.436L295.8 698.272C296.149 698.471 296.326 698.875 296.238 699.269L290.844 722.963C290.775 723.265 290.557 723.514 290.266 723.62C290.161 723.653 290.053 723.672 289.947 723.672ZM282.079 715.615L289.372 721.171L294.3 699.521L285.847 694.668L282.079 715.615Z" fill="#292525"/>
<path d="M293.003 718.463C292.461 725.835 291.159 740.661 285.586 751.175C284.091 753.995 278.252 753.784 276.134 749.94C271.715 741.922 266.067 728.298 269.389 711.849C269.65 710.564 270.508 709.478 271.696 708.927C273.091 708.281 275.298 707.47 278.437 706.897C280.002 706.611 281.486 707.708 281.677 709.29L282.377 715.086L283.116 714.125C284.227 712.677 286.181 712.175 287.851 712.909C288.751 713.306 289.745 713.74 290.642 714.136C292.32 714.873 293.139 716.632 293.003 718.463Z" fill="white"/>
<path d="M281.713 754C279.047 754 276.547 752.585 275.331 750.38C268.21 737.465 265.91 724.442 268.49 711.666C268.808 710.101 269.861 708.766 271.309 708.093C272.657 707.467 274.958 706.597 278.269 705.994C279.263 705.813 280.296 706.052 281.107 706.653C281.921 707.254 282.458 708.173 282.58 709.176L283.025 712.876C284.429 711.635 286.445 711.289 288.214 712.067L291.005 713.294C292.943 714.145 294.084 716.2 293.912 718.526C293.22 727.938 291.689 741.606 286.389 751.599C285.603 753.083 283.875 753.978 281.771 753.994C281.755 754 281.733 754 281.713 754ZM278.933 707.763C278.823 707.763 278.712 707.774 278.598 707.794C275.475 708.364 273.33 709.173 272.078 709.755C271.156 710.181 270.486 711.032 270.284 712.029C267.792 724.367 270.029 736.972 276.934 749.497C278.034 751.491 280.204 752.189 281.76 752.169C283.161 752.158 284.318 751.613 284.778 750.743C290.509 739.933 291.658 724.284 292.09 718.393C292.206 716.826 291.509 715.513 290.271 714.97L287.48 713.743C286.193 713.178 284.695 713.563 283.837 714.679L283.097 715.64C282.87 715.934 282.491 716.064 282.131 715.964C281.774 715.867 281.511 715.56 281.464 715.192L280.764 709.395C280.703 708.882 280.437 708.431 280.022 708.123C279.7 707.888 279.324 707.763 278.933 707.763Z" fill="#292525"/>
<path d="M280.725 749.386C280.423 749.386 280.127 749.236 279.953 748.962C269.612 732.715 271.954 714.006 272.059 713.217C272.126 712.716 272.577 712.361 273.086 712.43C273.587 712.497 273.939 712.957 273.873 713.458C273.848 713.643 271.522 732.311 281.497 747.982C281.769 748.408 281.644 748.973 281.218 749.245C281.063 749.339 280.894 749.386 280.725 749.386Z" fill="#292525"/>
<path d="M291.188 729.483C291.105 729.483 291.019 729.472 290.933 729.447L284.036 727.458C283.552 727.317 283.272 726.813 283.41 726.326C283.552 725.841 284.058 725.561 284.543 725.7L291.44 727.688C291.924 727.83 292.204 728.334 292.065 728.821C291.952 729.22 291.586 729.483 291.188 729.483Z" fill="#292525"/>
<path d="M289.861 735.482C289.753 735.482 289.645 735.463 289.54 735.424L283.026 732.973C282.552 732.795 282.314 732.266 282.491 731.796C282.668 731.322 283.197 731.084 283.668 731.261L290.183 733.712C290.656 733.889 290.894 734.418 290.717 734.889C290.581 735.258 290.232 735.482 289.861 735.482Z" fill="#292525"/>
<path d="M235.205 590.809C235.205 590.809 268.222 586.882 297.968 603.716C305.466 607.959 310.065 615.938 310.017 624.557C309.923 641.665 308.113 672.938 297.636 700.083C297.041 701.629 295.272 702.357 293.757 701.687L280.368 695.757C279.468 695.358 278.831 694.533 278.679 693.561C277.693 687.29 274.368 663.44 277.702 646.138C281.569 626.058 216.894 604.776 216.894 604.776L235.205 590.809Z" fill="#292525"/>
<path d="M335.586 692.619L323.653 700.465C322.855 700.989 321.795 700.856 321.153 700.152C313.81 692.101 272.361 646.878 261.967 640.956C250.552 634.453 229.225 624.662 209.853 624.779C190.483 624.895 186.396 611.435 186.396 611.435L214.019 593.581C214.019 593.581 261.818 598.996 282.015 615.428C300.252 630.268 330.491 680.41 336.189 690.007C336.721 690.899 336.452 692.048 335.586 692.619Z" fill="#292525"/>
<path d="M309.801 648.468C309.516 648.468 309.236 648.335 309.059 648.085C301.005 636.874 288.471 621.857 281.439 616.135C273.831 609.945 261.397 604.607 244.488 600.273C243.998 600.148 243.705 599.65 243.829 599.159C243.954 598.669 244.45 598.373 244.942 598.5C262.111 602.901 274.778 608.355 282.593 614.714C289.745 620.533 302.42 635.708 310.543 647.016C310.837 647.426 310.745 647.997 310.335 648.293C310.172 648.412 309.987 648.468 309.801 648.468Z" fill="#5479F7"/>
<path d="M213.582 550.07L217.12 557.354C221.331 566.023 227.807 573.388 235.861 578.67L239.125 580.811C241.219 582.184 243.708 582.821 246.202 582.627L246.584 582.597C250.397 582.301 254.184 583.414 257.23 585.727L248.666 588.48C243.445 590.158 237.761 589.765 232.868 587.283C228.181 584.907 222.453 581.004 217.674 574.781C207.665 561.736 205.351 553.704 205.351 553.704L213.582 550.07Z" fill="white"/>
<path d="M242.165 590.421C238.809 590.421 235.498 589.64 232.453 588.097C226.248 584.948 221.029 580.655 216.948 575.335C206.948 562.304 204.567 554.291 204.47 553.956C204.342 553.515 204.561 553.05 204.979 552.867L213.213 549.236C213.664 549.037 214.19 549.231 214.404 549.674L217.942 556.958C222.078 565.475 228.449 572.718 236.362 577.908L239.626 580.049C241.539 581.303 243.848 581.893 246.13 581.719L246.509 581.688C250.549 581.367 254.549 582.55 257.778 585.001C258.049 585.206 258.185 585.547 258.126 585.884C258.068 586.22 257.83 586.497 257.506 586.602L248.943 589.355C246.714 590.067 244.43 590.421 242.165 590.421ZM206.485 554.2C207.316 556.468 210.35 563.733 218.399 574.221C222.314 579.323 227.322 583.442 233.28 586.466C237.948 588.834 243.311 589.239 248.386 587.607L255.145 585.436C252.586 583.954 249.629 583.278 246.656 583.508L246.274 583.539C243.588 583.749 240.875 583.048 238.624 581.575L235.36 579.434C227.17 574.064 220.581 566.566 216.297 557.753L213.144 551.264L206.485 554.2Z" fill="#292525"/>
<path d="M202.681 619.915C202.681 619.915 191.825 628.208 185.856 625.82C179.887 623.436 190.161 613.221 193.187 612.825C196.213 612.432 202.681 619.915 202.681 619.915Z" fill="#292525"/>
<path d="M204.572 497.61C209.456 496.931 215.024 501.21 214.47 508.503C214.019 514.46 207.806 516.261 204.93 519.443C195.63 529.732 204.556 540.9 197.285 551.164C190.361 560.941 179.848 554.211 165.778 565.439C154.703 574.277 194.962 560.847 180.867 570.172C169.624 577.611 148.526 576.988 136.607 563.317C125.272 550.316 122.664 530.799 134.279 521.382C144.719 512.915 152.09 522.792 163.222 514.848C174.197 507.018 171.18 499.427 178.035 496.156C187.412 491.68 190.729 499.529 204.572 497.61Z" fill="#292525"/>
<path d="M146.799 570.441C147.422 566.777 148.327 562.47 149.252 559.631C152.095 550.893 154.033 545.206 163.779 540.011C165.238 539.232 166.769 538.601 168.339 538.077L174.228 536.111C174.228 536.111 198.534 529.156 208.271 538.557C209.06 539.318 210.057 540.177 210.697 541.185L217.04 550.751L216.982 550.776C211.345 553.081 208.986 559.822 212.001 565.115C215.467 571.2 220.246 578.307 225 581.262C226.5 582.195 238.602 587.17 238.602 587.17C238.602 587.17 241.573 596.226 222.951 603.992C204.329 611.759 190.76 614.573 186.853 624.161C184.541 629.839 175.125 602.621 169.062 577.118C167.896 572.211 163.306 568.906 158.286 569.374L146.799 570.441Z" fill="white"/>
<path d="M186.058 625.834C186.017 625.834 185.975 625.831 185.939 625.829C185.059 625.759 182.996 625.601 177.517 609.878C174.3 600.647 170.894 588.782 168.173 577.329C167.118 572.892 162.895 569.862 158.369 570.283L146.884 571.349C146.605 571.38 146.322 571.269 146.128 571.061C145.935 570.854 145.849 570.566 145.899 570.286C146.635 565.954 147.563 561.866 148.382 559.346C151.162 550.801 153.172 544.628 163.35 539.199C164.781 538.435 166.318 537.784 168.048 537.205L173.937 535.239C174.989 534.937 198.905 528.24 208.902 537.895C209.035 538.022 209.174 538.152 209.315 538.285C210.046 538.975 210.874 539.756 211.466 540.689L217.801 550.242C217.953 550.472 217.992 550.754 217.912 551.017C217.831 551.28 217.637 551.491 217.383 551.596L217.325 551.621C214.869 552.626 212.964 554.64 212.1 557.149C211.242 559.639 211.494 562.378 212.792 564.661C217.372 572.701 221.76 578.171 225.481 580.486C226.536 581.143 234.111 584.336 238.948 586.325C239.194 586.427 239.385 586.632 239.468 586.884C239.601 587.286 242.483 596.839 223.302 604.837C219.108 606.588 215.088 608.117 211.544 609.465C199.373 614.096 190.579 617.442 187.7 624.51C187.24 625.632 186.515 625.834 186.058 625.834ZM159.208 568.416C164.247 568.416 168.762 571.917 169.947 576.905C175.795 601.503 183.35 622.33 185.95 623.934C185.967 623.901 185.983 623.862 186.005 623.815C189.184 616.01 198.29 612.548 210.893 607.751C214.426 606.408 218.427 604.884 222.596 603.145C237.946 596.744 238.026 589.546 237.799 587.826C235.373 586.826 225.919 582.91 224.512 582.035C220.478 579.525 215.998 573.983 211.2 565.561C209.639 562.822 209.337 559.537 210.367 556.548C211.289 553.873 213.199 551.665 215.683 550.364L209.932 541.686C209.453 540.933 208.714 540.235 208.061 539.617C207.914 539.479 207.77 539.343 207.634 539.21C198.384 530.281 174.718 536.917 174.477 536.986L168.627 538.942C166.996 539.487 165.548 540.099 164.208 540.814C154.681 545.893 152.865 551.472 150.121 559.911C149.401 562.124 148.59 565.616 147.906 569.419L158.2 568.463C158.538 568.43 158.873 568.416 159.208 568.416Z" fill="#292525"/>
<path d="M219.368 593.338L210.351 590.767C209.011 590.385 207.568 590.731 206.544 591.676L202.626 595.301C201.879 595.994 200.896 596.368 199.877 596.359C195.433 596.312 174.945 591.559 172.705 588.161C171.598 586.48 169.914 580.597 168.646 575.725C167.583 571.643 163.721 568.934 159.521 569.327L150.476 570.175C150.476 570.175 154.352 591.867 162.154 598.439C168.212 603.544 181.905 605.502 201.48 603.222C201.48 603.222 205.561 602.53 208.773 598.229C210.824 595.481 216.256 596.537 219.39 595.581C220.501 595.238 220.487 593.659 219.368 593.338Z" fill="white"/>
<path d="M186.474 605.078C174.834 605.078 166.218 603.059 161.567 599.137C153.601 592.429 149.739 571.233 149.579 570.333C149.534 570.081 149.595 569.823 149.75 569.618C149.905 569.413 150.138 569.286 150.393 569.261L159.438 568.413C164.106 567.979 168.35 570.953 169.532 575.49C171.855 584.397 172.996 586.934 173.469 587.654C175.363 590.529 195.01 595.39 199.888 595.443C200.658 595.451 201.43 595.163 202.006 594.628L205.924 591.003C207.172 589.848 208.966 589.419 210.6 589.887L219.617 592.457C220.512 592.712 221.118 593.509 221.126 594.44C221.135 595.371 220.542 596.179 219.653 596.451C218.457 596.816 217.051 596.908 215.561 597.002C213.114 597.16 210.583 597.323 209.501 598.772C206.109 603.314 201.809 604.089 201.629 604.12C196.147 604.762 191.072 605.078 186.474 605.078ZM151.566 570.989C152.428 575.252 156.207 592.232 162.744 597.739C168.757 602.804 182.838 604.472 201.375 602.311C201.366 602.311 205.107 601.605 208.042 597.678C209.628 595.551 212.721 595.351 215.448 595.177C216.827 595.088 218.131 595.005 219.125 594.7C219.244 594.664 219.305 594.581 219.305 594.457C219.305 594.332 219.241 594.249 219.122 594.216L210.104 591.645C209.077 591.352 207.953 591.62 207.169 592.346L203.252 595.972C202.346 596.811 201.167 597.271 199.927 597.271C199.91 597.271 199.891 597.271 199.874 597.271C195.5 597.223 174.452 592.46 171.949 588.662C170.997 587.217 169.59 582.94 167.769 575.952C166.813 572.285 163.386 569.89 159.612 570.233L151.566 570.989Z" fill="#292525"/>
<path d="M175.236 536.266C175.236 536.266 180.313 519.889 180.488 517.9C180.488 517.9 178.871 517.047 178.962 514.555C179.134 509.813 183.838 512.162 183.838 512.162L184.3 512.272C186.997 512.923 189.824 512.782 192.446 511.868L197.947 509.949C197.947 509.949 199.099 511.971 197.759 515.873C197.119 517.734 197.244 519.895 197.582 522.155C197.67 522.75 197.26 523.307 196.665 523.398L195.195 523.623C194.428 525.403 193.741 526.461 192.471 527.605C192.122 527.918 191.665 528.09 191.2 528.065C190.566 528.032 189.588 527.896 188.492 527.436L187.664 534.385L191.313 534.297C191.313 534.297 192.628 538.651 185.718 541.803C181.903 543.542 176.501 543.19 172.425 542.523C170.335 542.182 169.815 539.415 171.647 538.352L175.236 536.266Z" fill="white"/>
<path d="M178.594 543.982C176.354 543.982 174.142 543.733 172.273 543.428C170.933 543.21 169.906 542.204 169.659 540.872C169.416 539.543 170.011 538.244 171.182 537.565L174.463 535.657C176.332 529.619 178.99 520.728 179.491 518.299C178.868 517.74 177.965 516.568 178.04 514.524C178.101 512.879 178.652 511.732 179.685 511.12C181.365 510.123 183.591 511.043 184.137 511.298L184.505 511.386C187.038 511.996 189.674 511.865 192.133 511.007L197.634 509.087C198.049 508.943 198.512 509.115 198.73 509.497C198.786 509.594 200.07 511.926 198.611 516.172C197.991 517.981 198.193 520.144 198.476 522.022C198.639 523.113 197.886 524.138 196.795 524.304L195.818 524.454C195.042 526.151 194.292 527.193 193.071 528.289C192.54 528.766 191.839 529.015 191.141 528.982C190.665 528.957 190.009 528.879 189.256 528.672L188.688 533.447L191.283 533.383C191.701 533.402 192.061 533.64 192.18 534.034C192.243 534.244 193.642 539.194 186.089 542.636C183.896 543.639 181.227 543.982 178.594 543.982ZM181.473 512.494C181.158 512.494 180.861 512.55 180.621 512.691C180.161 512.965 179.909 513.605 179.873 514.588C179.807 516.433 180.881 517.072 180.925 517.097C181.232 517.275 181.426 517.624 181.396 517.978C181.219 520.005 176.631 534.848 176.108 536.535C176.038 536.754 175.892 536.939 175.695 537.055L172.104 539.144C171.348 539.581 171.42 540.324 171.462 540.54C171.545 540.991 171.88 541.512 172.572 541.623C176.379 542.243 181.686 542.639 185.336 540.972C189.854 538.911 190.482 536.416 190.499 535.233L187.681 535.302C187.415 535.288 187.16 535.2 186.983 535.003C186.806 534.807 186.72 534.543 186.75 534.28L187.578 527.331C187.611 527.046 187.777 526.794 188.027 526.65C188.273 526.506 188.575 526.486 188.841 526.597C189.818 527.007 190.687 527.129 191.241 527.157C191.468 527.173 191.681 527.085 191.853 526.932C192.974 525.924 193.606 524.999 194.35 523.265C194.475 522.977 194.741 522.77 195.051 522.722L196.521 522.498C196.618 522.482 196.687 522.39 196.673 522.293C196.36 520.197 196.139 517.759 196.889 515.58C197.626 513.436 197.537 511.94 197.368 511.123L192.744 512.738C189.954 513.713 186.961 513.86 184.084 513.167L183.622 513.056C183.555 513.04 183.489 513.018 183.428 512.984C183.096 512.818 182.237 512.494 181.473 512.494Z" fill="#292525"/>
<path d="M188.484 528.353C188.354 528.353 188.221 528.326 188.096 528.267L187.086 527.794C186.629 527.581 186.432 527.035 186.646 526.578C186.859 526.121 187.404 525.922 187.861 526.138L188.872 526.611C189.328 526.824 189.525 527.37 189.312 527.827C189.157 528.159 188.827 528.353 188.484 528.353Z" fill="#292525"/>
<path d="M262.869 584.79L221.223 597.459L235.127 550.184C235.642 548.405 237.048 546.993 238.853 546.445L272.651 536.164C274.796 535.51 276.801 537.415 276.189 539.529L262.869 584.79Z" fill="#292525"/>
<path d="M252.941 566.151C252.449 567.854 250.812 569.61 249.287 570.075C247.761 570.54 246.922 569.535 247.412 567.832C247.905 566.128 249.541 564.372 251.067 563.907C252.595 563.445 253.434 564.447 252.941 566.151Z" fill="white"/>
<path d="M261.413 587.978L196.084 607.851C194.735 608.261 193.307 607.499 192.897 606.147L192.703 605.798L262.919 584.439L263.113 584.788C263.525 586.139 262.764 587.568 261.413 587.978Z" fill="#292525"/>
<path d="M304.922 352.914L354.785 367.411L390.166 328.032L304.922 352.914Z" fill="white"/>
<path d="M329.771 376.315L322.808 358.113L369.161 339.166L331.573 360.661L341.997 363.691L329.771 376.315Z" fill="#CADDFF"/>
<path d="M330.956 371.086C330.922 371.086 330.886 371.083 330.853 371.081C330.388 371.025 330.056 370.602 330.114 370.136L331.102 361.982C331.158 361.517 331.59 361.179 332.047 361.243C332.512 361.298 332.844 361.722 332.786 362.187L331.797 370.341C331.745 370.77 331.377 371.086 330.956 371.086Z" fill="white"/>
<path d="M121.238 495.383C121.006 495.383 120.77 495.295 120.593 495.115C120.236 494.757 120.236 494.178 120.593 493.821L122.719 491.694C123.077 491.337 123.655 491.337 124.012 491.694C124.37 492.051 124.37 492.63 124.012 492.987L121.886 495.115C121.706 495.292 121.471 495.383 121.238 495.383Z" fill="#292525"/>
<path d="M129.269 487.346C129.037 487.346 128.802 487.257 128.624 487.077C128.267 486.72 128.267 486.141 128.624 485.783L130.751 483.656C131.108 483.299 131.686 483.299 132.044 483.656C132.401 484.014 132.401 484.593 132.044 484.95L129.917 487.077C129.737 487.257 129.502 487.346 129.269 487.346Z" fill="#292525"/>
<path d="M131.396 495.383C131.163 495.383 130.928 495.295 130.751 495.115L128.624 492.987C128.267 492.63 128.267 492.051 128.624 491.694C128.981 491.337 129.56 491.337 129.917 491.694L132.044 493.821C132.401 494.178 132.401 494.757 132.044 495.115C131.864 495.292 131.628 495.383 131.396 495.383Z" fill="#292525"/>
<path d="M123.362 487.346C123.129 487.346 122.894 487.257 122.716 487.077L120.59 484.95C120.233 484.593 120.233 484.014 120.59 483.656C120.947 483.299 121.526 483.299 121.883 483.656L124.009 485.783C124.367 486.141 124.367 486.72 124.009 487.077C123.829 487.257 123.597 487.346 123.362 487.346Z" fill="#292525"/>
<path d="M224.318 271.423C224.066 271.423 223.814 271.318 223.634 271.115C223.299 270.736 223.335 270.16 223.712 269.825L225.963 267.831C226.342 267.496 226.92 267.532 227.253 267.908C227.588 268.288 227.552 268.864 227.175 269.199L224.924 271.193C224.75 271.345 224.531 271.423 224.318 271.423Z" fill="white"/>
<path d="M232.823 263.892C232.571 263.892 232.319 263.787 232.139 263.585C231.804 263.205 231.84 262.629 232.216 262.294L234.467 260.3C234.847 259.965 235.425 260.001 235.758 260.377C236.093 260.757 236.057 261.333 235.68 261.668L233.429 263.662C233.255 263.815 233.039 263.892 232.823 263.892Z" fill="white"/>
<path d="M234.457 272.04C234.205 272.04 233.953 271.935 233.773 271.733L231.78 269.481C231.445 269.102 231.481 268.526 231.857 268.191C232.236 267.855 232.812 267.891 233.147 268.268L235.141 270.52C235.476 270.899 235.44 271.475 235.063 271.81C234.889 271.966 234.673 272.04 234.457 272.04Z" fill="white"/>
<path d="M226.929 263.532C226.677 263.532 226.425 263.427 226.245 263.225L224.251 260.973C223.916 260.596 223.952 260.017 224.329 259.682C224.708 259.347 225.287 259.383 225.619 259.76L227.612 262.012C227.947 262.391 227.911 262.967 227.535 263.302C227.36 263.455 227.145 263.532 226.929 263.532Z" fill="white"/>
<path d="M202.684 299.108C202.587 299.108 202.493 299.106 202.396 299.1C201.145 299.023 199.999 298.466 199.171 297.527C198.34 296.588 197.925 295.383 198.002 294.131C198.08 292.879 198.636 291.736 199.575 290.905C200.514 290.074 201.71 289.661 202.969 289.736C205.55 289.894 207.521 292.121 207.363 294.705C207.211 297.186 205.14 299.108 202.684 299.108ZM202.676 291.553C201.978 291.553 201.311 291.805 200.785 292.27C200.212 292.777 199.871 293.478 199.824 294.239C199.727 295.815 200.932 297.175 202.507 297.272C204.077 297.369 205.442 296.164 205.539 294.588C205.636 293.012 204.431 291.653 202.859 291.558C202.795 291.556 202.737 291.553 202.676 291.553Z" fill="white"/>
<path d="M418.589 728.835C418.337 728.835 418.086 728.73 417.906 728.527C417.571 728.148 417.607 727.572 417.983 727.237L420.234 725.243C420.613 724.907 421.192 724.943 421.524 725.32C421.859 725.7 421.823 726.276 421.447 726.611L419.196 728.605C419.021 728.757 418.805 728.835 418.589 728.835Z" fill="#292525"/>
<path d="M427.097 721.301C426.845 721.301 426.593 721.196 426.413 720.994C426.078 720.614 426.114 720.038 426.491 719.703L428.742 717.709C429.121 717.374 429.697 717.41 430.032 717.787C430.367 718.166 430.331 718.742 429.954 719.077L427.704 721.071C427.529 721.227 427.313 721.301 427.097 721.301Z" fill="#292525"/>
<path d="M428.731 729.452C428.479 729.452 428.227 729.347 428.047 729.145L426.054 726.893C425.719 726.514 425.755 725.938 426.132 725.603C426.508 725.268 427.089 725.304 427.422 725.68L429.415 727.932C429.75 728.311 429.714 728.887 429.338 729.223C429.163 729.378 428.944 729.452 428.731 729.452Z" fill="#292525"/>
<path d="M421.203 720.941C420.951 720.941 420.699 720.836 420.519 720.634L418.526 718.382C418.191 718.003 418.227 717.427 418.603 717.091C418.98 716.756 419.558 716.792 419.893 717.169L421.887 719.421C422.222 719.8 422.186 720.376 421.809 720.711C421.635 720.866 421.416 720.941 421.203 720.941Z" fill="#292525"/>
<path d="M196.391 443.97C194.259 443.97 192.108 443.901 189.998 443.768C189.494 443.735 189.112 443.3 189.145 442.796C189.179 442.292 189.58 441.901 190.117 441.943C192.504 442.095 194.943 442.159 197.36 442.136C197.363 442.136 197.366 442.136 197.368 442.136C197.869 442.136 198.276 442.541 198.282 443.042C198.288 443.546 197.881 443.959 197.377 443.964C197.047 443.967 196.72 443.97 196.391 443.97ZM204.667 443.638C204.196 443.638 203.794 443.275 203.756 442.796C203.717 442.292 204.091 441.851 204.595 441.812C206.97 441.624 209.393 441.35 211.799 440.995C212.302 440.923 212.762 441.267 212.837 441.768C212.909 442.267 212.566 442.732 212.064 442.807C209.62 443.164 207.156 443.444 204.741 443.638C204.714 443.635 204.691 443.638 204.667 443.638ZM182.783 443.028C182.741 443.028 182.697 443.026 182.656 443.02C180.222 442.679 177.777 442.239 175.388 441.715C174.895 441.607 174.582 441.12 174.69 440.627C174.798 440.134 175.285 439.818 175.778 439.929C178.121 440.444 180.518 440.873 182.905 441.209C183.406 441.278 183.755 441.74 183.683 442.242C183.625 442.699 183.232 443.028 182.783 443.028ZM219.127 441.527C218.704 441.527 218.324 441.231 218.233 440.801C218.128 440.306 218.446 439.821 218.939 439.719C221.27 439.228 223.643 438.655 225.996 438.015C226.486 437.882 226.985 438.17 227.118 438.658C227.25 439.145 226.963 439.647 226.475 439.779C224.089 440.428 221.68 441.009 219.316 441.508C219.252 441.519 219.188 441.527 219.127 441.527ZM168.511 439.893C168.422 439.893 168.333 439.879 168.245 439.854C165.908 439.148 163.56 438.342 161.265 437.45C160.794 437.267 160.559 436.738 160.742 436.268C160.924 435.797 161.456 435.561 161.924 435.744C164.178 436.617 166.481 437.409 168.774 438.101C169.258 438.248 169.529 438.757 169.385 439.239C169.266 439.638 168.904 439.893 168.511 439.893ZM233.242 437.699C232.857 437.699 232.5 437.456 232.372 437.071C232.215 436.592 232.475 436.074 232.954 435.916C235.213 435.171 237.517 434.345 239.798 433.462C240.269 433.279 240.798 433.515 240.98 433.985C241.163 434.456 240.928 434.985 240.457 435.168C238.145 436.06 235.814 436.896 233.527 437.652C233.433 437.686 233.336 437.699 233.242 437.699ZM154.9 434.578C154.753 434.578 154.606 434.545 154.468 434.47C152.311 433.312 150.243 431.861 148.324 430.155C147.948 429.82 147.912 429.241 148.25 428.864C148.585 428.488 149.163 428.454 149.54 428.789C151.35 430.401 153.3 431.77 155.332 432.861C155.777 433.099 155.944 433.653 155.706 434.099C155.539 434.404 155.224 434.578 154.9 434.578ZM246.891 432.434C246.54 432.434 246.205 432.229 246.055 431.889C245.85 431.426 246.061 430.886 246.523 430.684C248.708 429.723 250.928 428.687 253.121 427.607C253.575 427.385 254.123 427.571 254.345 428.022C254.569 428.477 254.381 429.025 253.929 429.246C251.714 430.338 249.469 431.385 247.262 432.357C247.141 432.409 247.013 432.434 246.891 432.434ZM260.023 425.973C259.699 425.973 259.386 425.801 259.22 425.494C258.979 425.05 259.143 424.494 259.588 424.253C261.69 423.109 263.822 421.899 265.926 420.655C266.361 420.4 266.92 420.541 267.18 420.976C267.438 421.411 267.294 421.971 266.859 422.228C264.738 423.486 262.587 424.707 260.463 425.859C260.319 425.937 260.17 425.973 260.023 425.973ZM144 425.001C143.723 425.001 143.449 424.876 143.269 424.635C141.815 422.707 140.483 420.583 139.301 418.32C139.069 417.871 139.243 417.32 139.689 417.088C140.137 416.855 140.688 417.027 140.921 417.475C142.053 419.65 143.335 421.688 144.725 423.535C145.03 423.94 144.949 424.513 144.545 424.815C144.384 424.94 144.191 425.001 144 425.001ZM272.621 418.514C272.319 418.514 272.025 418.364 271.851 418.093C271.58 417.667 271.701 417.102 272.128 416.83C274.149 415.534 276.192 414.174 278.202 412.792C278.617 412.507 279.188 412.609 279.473 413.027C279.758 413.443 279.656 414.013 279.238 414.299C277.211 415.695 275.151 417.063 273.113 418.37C272.961 418.467 272.789 418.514 272.621 418.514ZM137.211 412.102C136.834 412.102 136.48 411.867 136.35 411.493C135.541 409.197 134.863 406.793 134.334 404.344C134.229 403.851 134.542 403.364 135.035 403.256C135.525 403.153 136.015 403.464 136.123 403.957C136.635 406.33 137.291 408.662 138.075 410.884C138.244 411.36 137.992 411.881 137.515 412.05C137.416 412.086 137.313 412.102 137.211 412.102ZM284.686 410.211C284.407 410.211 284.13 410.083 283.95 409.839C283.651 409.432 283.737 408.859 284.144 408.56C286.085 407.131 288.039 405.643 289.952 404.142C290.348 403.832 290.924 403.901 291.237 404.297C291.547 404.693 291.478 405.27 291.082 405.582C289.155 407.095 287.184 408.593 285.229 410.033C285.063 410.152 284.872 410.211 284.686 410.211ZM296.21 401.168C295.947 401.168 295.686 401.057 295.506 400.838C295.182 400.45 295.235 399.874 295.623 399.55C297.491 397.991 299.352 396.39 301.157 394.789C301.534 394.454 302.112 394.487 302.447 394.867C302.782 395.243 302.749 395.822 302.37 396.157C300.551 397.769 298.676 399.384 296.794 400.954C296.625 401.098 296.417 401.168 296.21 401.168ZM134.115 397.839C133.65 397.839 133.252 397.484 133.207 397.01C133.022 395.027 132.928 393.011 132.928 391.02C132.928 390.546 132.933 390.07 132.944 389.593C132.955 389.095 133.362 388.699 133.858 388.699C133.866 388.699 133.872 388.699 133.88 388.699C134.384 388.71 134.786 389.128 134.774 389.635C134.763 390.097 134.758 390.557 134.758 391.02C134.758 392.956 134.849 394.911 135.029 396.839C135.076 397.343 134.708 397.789 134.204 397.836C134.174 397.836 134.146 397.839 134.115 397.839ZM307.165 391.435C306.924 391.435 306.681 391.338 306.503 391.15C306.155 390.784 306.171 390.205 306.537 389.856C308.943 387.574 310.69 385.807 311.731 384.727C312.082 384.361 312.661 384.353 313.024 384.702C313.386 385.054 313.397 385.633 313.049 385.995C311.994 387.089 310.227 388.876 307.796 391.183C307.619 391.352 307.392 391.435 307.165 391.435ZM134.45 383.237C134.409 383.237 134.365 383.234 134.32 383.229C133.819 383.157 133.473 382.694 133.542 382.195C133.891 379.725 134.392 377.279 135.029 374.922C135.162 374.435 135.666 374.147 136.15 374.277C136.638 374.41 136.926 374.911 136.796 375.399C136.178 377.684 135.694 380.057 135.356 382.453C135.289 382.907 134.899 383.237 134.45 383.237ZM138.274 369.159C138.158 369.159 138.036 369.137 137.922 369.087C137.457 368.893 137.239 368.356 137.432 367.89C138.399 365.58 139.525 363.345 140.78 361.246C141.04 360.814 141.602 360.672 142.034 360.93C142.469 361.19 142.61 361.75 142.349 362.185C141.14 364.209 140.051 366.367 139.121 368.596C138.972 368.948 138.631 369.159 138.274 369.159ZM145.774 356.659C145.569 356.659 145.362 356.59 145.193 356.449C144.803 356.127 144.75 355.551 145.071 355.161C146.655 353.244 148.402 351.444 150.257 349.813C150.636 349.477 151.215 349.516 151.547 349.896C151.882 350.275 151.843 350.851 151.464 351.186C149.681 352.757 148.003 354.485 146.48 356.327C146.3 356.548 146.037 356.659 145.774 356.659ZM156.708 347.04C156.406 347.04 156.11 346.891 155.935 346.614C155.664 346.187 155.791 345.622 156.22 345.351C158.289 344.043 160.498 342.872 162.793 341.864C163.256 341.662 163.796 341.872 163.998 342.335C164.2 342.797 163.989 343.337 163.527 343.539C161.315 344.509 159.186 345.639 157.195 346.896C157.046 346.996 156.877 347.04 156.708 347.04Z" fill="#5479F7"/>
<path d="M258.356 529.467C258.262 529.467 258.165 529.453 258.071 529.419C257.592 529.262 257.332 528.744 257.489 528.264C257.498 528.24 258.337 525.689 259.596 521.271C259.735 520.786 260.241 520.507 260.726 520.642C261.21 520.781 261.493 521.288 261.354 521.772C260.084 526.229 259.234 528.81 259.225 528.835C259.098 529.226 258.741 529.467 258.356 529.467ZM262.404 515.372C262.326 515.372 262.249 515.363 262.171 515.341C261.684 515.214 261.39 514.713 261.518 514.225C262.13 511.89 262.728 509.508 263.298 507.14C263.417 506.65 263.91 506.348 264.4 506.464C264.89 506.584 265.192 507.077 265.076 507.567C264.502 509.946 263.902 512.342 263.287 514.688C263.179 515.1 262.811 515.372 262.404 515.372ZM265.831 501.133C265.768 501.133 265.701 501.127 265.635 501.111C265.142 501.003 264.829 500.512 264.94 500.019C265.46 497.657 265.967 495.253 266.443 492.871C266.543 492.375 267.025 492.057 267.52 492.154C268.016 492.253 268.337 492.735 268.237 493.231C267.758 495.621 267.249 498.039 266.726 500.413C266.632 500.845 266.252 501.133 265.831 501.133ZM268.708 486.775C268.655 486.775 268.6 486.769 268.545 486.761C268.046 486.672 267.717 486.196 267.805 485.698C268.237 483.288 268.65 480.867 269.024 478.496C269.104 477.998 269.569 477.66 270.07 477.738C270.569 477.818 270.909 478.286 270.829 478.785C270.452 481.166 270.04 483.601 269.605 486.022C269.528 486.465 269.143 486.775 268.708 486.775ZM270.998 472.315C270.956 472.315 270.915 472.312 270.873 472.306C270.372 472.237 270.023 471.777 270.09 471.276C270.419 468.855 270.724 466.418 270.992 464.033C271.048 463.532 271.499 463.166 272.003 463.227C272.504 463.283 272.864 463.737 272.808 464.238C272.537 466.637 272.233 469.088 271.9 471.522C271.839 471.982 271.449 472.315 270.998 472.315ZM272.637 457.766C272.609 457.766 272.581 457.766 272.556 457.763C272.053 457.718 271.682 457.275 271.726 456.771C271.942 454.317 272.125 451.869 272.266 449.495C272.296 448.991 272.717 448.606 273.235 448.637C273.739 448.667 274.124 449.099 274.093 449.606C273.949 451.996 273.766 454.461 273.548 456.932C273.503 457.408 273.105 457.766 272.637 457.766ZM273.517 443.158C273.506 443.158 273.498 443.158 273.487 443.158C272.983 443.142 272.587 442.721 272.601 442.217C272.678 439.796 272.714 437.378 272.714 435.032V434.93C272.714 434.426 273.124 434.016 273.628 434.016C274.132 434.016 274.542 434.426 274.542 434.93V435.032C274.542 437.397 274.503 439.835 274.425 442.275C274.414 442.768 274.007 443.158 273.517 443.158ZM273.501 428.524C273.011 428.524 272.606 428.136 272.587 427.643C272.498 425.189 272.365 422.743 272.188 420.37C272.149 419.866 272.529 419.428 273.033 419.389C273.528 419.353 273.974 419.73 274.013 420.234C274.193 422.63 274.328 425.1 274.417 427.576C274.434 428.08 274.04 428.504 273.537 428.524C273.523 428.524 273.512 428.524 273.501 428.524ZM272.393 413.93C271.936 413.93 271.543 413.589 271.488 413.124C271.197 410.684 270.848 408.263 270.452 405.926C270.366 405.427 270.704 404.956 271.2 404.873C271.69 404.785 272.169 405.125 272.252 405.621C272.653 407.986 273.005 410.44 273.298 412.908C273.359 413.409 272.999 413.864 272.498 413.925C272.465 413.93 272.429 413.93 272.393 413.93ZM269.935 399.511C269.516 399.511 269.14 399.223 269.043 398.8C268.498 396.401 267.883 394.036 267.218 391.776C267.077 391.291 267.354 390.781 267.839 390.64C268.323 390.502 268.833 390.776 268.974 391.26C269.649 393.559 270.272 395.961 270.826 398.398C270.937 398.891 270.629 399.381 270.137 399.492C270.07 399.503 270.001 399.511 269.935 399.511ZM265.79 385.489C265.419 385.489 265.07 385.261 264.934 384.893C264.076 382.594 263.135 380.348 262.138 378.215C261.925 377.758 262.121 377.213 262.578 377C263.035 376.783 263.58 376.983 263.794 377.44C264.813 379.617 265.773 381.91 266.648 384.253C266.825 384.727 266.584 385.253 266.111 385.43C266.006 385.472 265.898 385.489 265.79 385.489ZM259.577 372.266C259.264 372.266 258.957 372.103 258.788 371.812C257.561 369.707 256.238 367.674 254.851 365.763C254.555 365.353 254.646 364.783 255.053 364.486C255.46 364.19 256.033 364.281 256.329 364.688C257.75 366.647 259.106 368.735 260.366 370.89C260.621 371.327 260.474 371.887 260.037 372.142C259.893 372.227 259.735 372.266 259.577 372.266ZM250.994 360.462C250.745 360.462 250.496 360.359 250.316 360.16C248.702 358.376 246.98 356.67 245.197 355.097C244.817 354.762 244.781 354.186 245.116 353.806C245.451 353.427 246.027 353.391 246.406 353.726C248.242 355.346 250.014 357.1 251.672 358.936C252.01 359.31 251.983 359.889 251.609 360.226C251.432 360.384 251.213 360.462 250.994 360.462ZM240.061 350.812C239.881 350.812 239.698 350.76 239.537 350.649C237.588 349.286 235.526 348.015 233.413 346.866C232.97 346.625 232.807 346.068 233.048 345.625C233.289 345.182 233.845 345.018 234.288 345.259C236.461 346.442 238.579 347.749 240.587 349.151C241.002 349.439 241.102 350.009 240.814 350.425C240.634 350.677 240.349 350.812 240.061 350.812ZM227.258 343.827C227.142 343.827 227.023 343.805 226.91 343.758C224.731 342.852 222.446 342.033 220.121 341.318C219.639 341.171 219.368 340.659 219.514 340.177C219.661 339.692 220.173 339.424 220.655 339.57C223.039 340.302 225.378 341.144 227.61 342.069C228.078 342.262 228.297 342.797 228.103 343.265C227.959 343.617 227.618 343.827 227.258 343.827Z" fill="#5479F7"/>
<path d="M520.418 719.119C520.418 719.119 491.071 661.709 505.332 605.892C505.808 604.026 513.065 606.103 513.641 604.242C514.377 601.863 508.472 595.551 509.383 593.191C512.771 584.416 517.401 575.797 523.561 567.566C523.561 567.566 535.187 584.502 541.219 610.942C541.674 612.936 534.259 618.486 534.641 620.585C535.004 622.569 543.171 621.092 543.457 623.164C547.164 649.947 543.974 683.872 520.418 719.119Z" fill="#99B9FF"/>
<path d="M494.875 651.348C493.654 649.678 486.699 655.708 485.459 654.121C484.235 652.556 487.538 641.244 486.3 639.763C462.053 610.695 436.24 597.367 436.24 597.367C433.953 612.47 434.211 626.931 436.326 640.621C436.664 642.806 446.548 646.457 446.977 648.603C447.448 650.958 439.38 653.899 439.956 656.206C448.45 690.267 466.995 716.911 485.373 737.737C499.715 732.685 512.722 726.339 524.455 718.9C518.81 690.481 508.095 669.431 494.875 651.348Z" fill="#5479F7"/>
<path d="M502.124 718.612C501.83 718.612 501.542 718.471 501.365 718.208C494.867 708.552 488.535 698.59 482.544 688.6C482.283 688.168 482.425 687.606 482.857 687.345C483.288 687.085 483.85 687.226 484.111 687.658C490.088 697.621 496.404 707.555 502.882 717.186C503.165 717.604 503.054 718.174 502.636 718.454C502.478 718.562 502.301 718.612 502.124 718.612Z" fill="#CADDFF"/>
<path d="M474.96 674.694C474.642 674.694 474.332 674.527 474.165 674.231C464.481 657.145 455.438 639.419 447.285 621.549L443.558 613.379C443.347 612.919 443.55 612.376 444.009 612.169C444.469 611.958 445.011 612.16 445.219 612.62L448.946 620.79C457.077 638.613 466.098 656.292 475.755 673.331C476.004 673.771 475.849 674.328 475.411 674.577C475.267 674.655 475.112 674.694 474.96 674.694Z" fill="#CADDFF"/>
<path d="M518.757 722.326C518.757 722.326 507.143 660.973 567.184 639.677C567.187 639.677 572.215 693.234 518.757 722.326Z" fill="#5479F7"/>
<path d="M529.536 706.354C529.436 706.354 529.334 706.337 529.234 706.304C528.758 706.138 528.506 705.614 528.675 705.138C535.563 685.459 556.987 654.985 557.203 654.68C557.494 654.267 558.067 654.17 558.476 654.461C558.889 654.752 558.986 655.323 558.695 655.735C558.482 656.04 537.202 686.304 530.399 705.744C530.267 706.118 529.912 706.354 529.536 706.354Z" fill="#CADDFF"/>
</g>
<defs>
<clipPath id="clip0_24_331">
<rect width="500" height="507" fill="white" transform="translate(105 247)"/>
</clipPath>
</defs>
</svg>
