<svg width="44" height="44" viewBox="0 0 44 44" fill="none" xmlns="http://www.w3.org/2000/svg">
<rect width="44" height="44" rx="10" fill="#000080"/>
<path d="M22.0002 6.41797C16.2802 6.41797 11.1428 9.72815 8.86538 14.8486C8.75945 15.1072 8.86538 15.4175 9.1302 15.521C9.39501 15.6244 9.71279 15.521 9.81871 15.2624C10.9839 12.6763 12.9435 10.5557 15.3269 9.21094C14.5854 9.93504 13.9498 10.8143 13.4732 11.7453C13.2613 12.1591 13.3143 12.6763 13.632 12.9866C14.1087 13.5038 15.0091 13.2452 15.2739 12.9866C15.4857 12.7797 15.4328 12.5211 15.2739 12.2625C15.0091 11.8487 14.4265 12.2625 14.4265 12.2625C14.4265 12.2625 15.3798 9.52127 19.0343 7.76273C19.6698 7.60757 20.2524 7.55584 20.888 7.50412C20.3583 8.02134 19.7758 8.48683 19.0872 8.90061C19.0872 8.90061 16.6509 10.3488 16.2802 10.6591C16.0683 10.866 16.0683 11.1246 16.2272 11.3832C16.492 11.7453 16.8628 11.5384 16.9687 11.435C17.3395 11.1764 19.6698 9.77988 19.6698 9.77988C21.0469 9.21094 22.4769 7.50412 22.4769 7.50412C24.8602 7.60757 27.0846 8.27995 28.9913 9.46955L27.6672 10.7626C26.8728 11.5384 26.1843 12.0556 25.4957 12.4177C23.748 13.4004 22.3709 14.8486 21.4706 16.6071C21.2587 17.0209 21.3117 17.5381 21.6295 17.8485C22.1591 18.3139 23.0065 18.1071 23.2713 17.8485L24.1717 16.9692C24.3835 16.7623 24.3835 16.452 24.1717 16.2451C23.9598 16.0382 23.642 16.0382 23.4302 16.2451L22.4239 17.1243C22.4239 17.1243 23.2713 14.7452 26.0254 13.2969C26.8198 12.8832 27.5613 12.2625 28.4087 11.435L29.8917 9.98676C30.1565 10.1936 30.4213 10.4005 30.6861 10.6074L29.0443 12.2108C28.4087 12.7797 27.8261 13.2969 27.1376 13.7107L25.6017 14.59C25.3369 14.7452 25.2309 15.0555 25.3898 15.3141C25.6017 15.6761 26.0254 15.5727 26.1313 15.521L27.6672 14.6417C28.4617 14.1762 29.1502 13.6073 29.7857 12.9866L31.4806 11.3315C31.8513 11.6936 32.1691 12.0556 32.4869 12.4177L27.8261 16.9692C26.6609 18.1071 25.7606 19.4001 25.178 20.7966C24.5424 22.2448 23.695 23.6413 22.5828 24.9343C22.3709 25.1412 22.4239 25.4515 22.6357 25.6584C22.9006 25.917 23.2713 25.7101 23.3772 25.6067C24.5424 24.2619 25.4428 22.762 26.1313 21.2104C26.6609 19.9173 27.4554 18.7794 28.5676 17.6933L33.1224 13.2452C33.758 14.1762 34.2346 15.1589 34.6054 16.1934L32.222 18.5726C31.2157 19.3484 30.3154 21.2104 30.3154 21.2104C29.6269 22.3482 28.6206 23.3309 27.4554 24.0033C26.1843 24.7792 24.9661 25.6584 23.9598 26.6411L22.4769 28.0893C22.265 28.2962 21.9472 28.2962 21.7354 28.0893C21.6295 27.9859 21.4706 27.6756 21.7354 27.3652C21.9472 27.1583 21.9472 26.848 21.7354 26.6411C21.5235 26.4342 21.1528 26.4342 20.9939 26.6411C20.0935 27.6756 20.6761 28.5031 20.9939 28.8134C21.8413 29.641 22.9006 29.1238 23.2183 28.8134L24.7013 27.3652C25.6546 26.4342 26.7669 25.555 27.985 24.8309C29.3091 24.055 30.3683 22.9689 31.1628 21.7276C31.1628 21.7276 32.0102 20.0208 32.9635 19.2967L34.9232 17.3312C35.135 18.3139 35.2409 19.3484 35.2409 20.3828C35.2409 26.5377 30.792 31.7099 24.9132 33.0029C25.178 32.796 25.4428 32.6408 25.7076 32.4857C25.9724 32.3305 26.0254 32.0202 25.8665 31.7616C25.7076 31.503 25.3898 31.4512 25.125 31.6064C24.1187 32.1236 22.9006 33.3132 22.9006 33.3132C22.5828 33.3132 21.6295 33.3649 21.4706 33.3132L22.212 32.5891C22.9006 31.9167 23.4832 31.503 24.1187 31.1409L25.6546 30.2616C26.502 29.7961 27.1906 29.2272 27.7732 28.6066C27.7732 28.6066 28.7265 27.6756 28.7795 27.7273C28.7795 27.7273 27.7732 29.4341 27.1376 30.1065C26.9257 30.3134 26.9257 30.6237 27.1376 30.8306C27.3495 31.0375 27.6672 31.0375 27.8791 30.8306C28.6206 30.0548 29.2561 29.2272 29.7328 28.2445C29.9446 27.8307 29.8387 27.3135 29.5739 27.0032C28.9913 26.5377 28.1969 26.7446 27.932 27.0032L27.0317 27.8824C26.502 28.4514 25.8665 28.9169 25.125 29.3307L23.5891 30.2099C22.8476 30.6237 22.212 31.1409 21.4706 31.865L20.0935 33.1581C17.7102 32.8477 15.5387 31.865 13.738 30.4685L15.2739 28.9686C16.0683 28.1928 16.7569 27.6756 17.4454 27.3135C19.1932 26.3308 20.5702 24.8826 21.4706 23.1241C21.6824 22.7103 21.6824 22.1931 21.2587 21.831C21.0469 21.6241 20.1465 21.3655 19.6698 21.831L18.7695 22.7103C18.2398 23.2792 17.6043 23.7447 16.8628 24.1585L15.3269 25.0378C14.4795 25.5033 13.7909 26.0722 13.2083 26.6929L11.5665 28.2962C11.3017 27.9342 11.0369 27.6238 10.825 27.2618L15.3798 22.8137C16.598 21.5724 17.4454 20.2794 18.028 18.9346C18.8224 17.0209 20.0406 15.2624 21.6295 13.7107L22.212 13.1418C22.5298 12.8315 22.9535 11.6936 22.212 10.9695C21.5765 10.3488 20.6232 10.3488 19.9876 10.9695L18.5046 12.4177C17.5513 13.3487 16.4391 14.2279 15.2209 14.952C13.8439 15.7796 12.7846 16.814 12.0432 18.0553C12.0432 18.0553 11.0898 20.0208 10.2954 20.4863L8.97131 21.7793C8.81242 21.3655 8.75945 20.9 8.75945 20.3828C8.75945 20.0725 8.5476 19.8656 8.22982 19.8656C7.91205 19.8656 7.7002 20.0725 7.7002 20.3828C7.7002 28.0893 14.1087 34.3477 22.0002 34.3477C29.8917 34.3477 36.3002 28.0893 36.3002 20.3828C36.3002 12.6763 29.8917 6.41797 22.0002 6.41797ZM9.07723 23.1241L10.9309 21.3138C12.0432 20.4345 12.8906 18.676 12.8906 18.676C13.5791 17.5381 14.5324 16.6071 15.7506 15.883C17.0217 15.1072 18.2398 14.2279 19.2461 13.2452L20.7291 11.797C20.9409 11.5901 21.2057 11.5901 21.4706 11.797C21.7883 12.0556 21.5765 12.4177 21.4706 12.5211L20.888 13.0901C19.1932 14.7452 17.922 16.6071 17.0746 18.6243C16.545 19.8656 15.7506 21.0552 14.6383 22.1931L10.2954 26.4342C9.71279 25.3481 9.28908 24.2619 9.07723 23.1241ZM12.255 29.1238L13.9498 27.4687C14.4795 26.8997 15.115 26.4342 15.8565 26.0205L17.3924 25.1412C18.2398 24.6757 18.9283 24.1068 19.5109 23.4861C19.5109 23.4861 20.4643 22.6068 20.5172 22.6068C20.5172 22.6068 18.4517 25.6067 16.9157 26.4342C16.1213 26.848 15.3798 27.4687 14.5324 28.2962L12.9435 29.8479C12.7317 29.5893 12.4669 29.3824 12.255 29.1238Z" fill="white"/>
<path d="M7.8612 17.1223C7.81016 17.2829 7.75911 17.4758 7.70807 17.6686C7.65703 17.8293 7.8612 18.0221 8.11642 18.0543C8.16747 18.0543 8.62686 18.0864 8.72895 17.7972C8.77999 17.6365 8.83104 17.4758 8.88208 17.3151C8.93313 17.1544 8.77999 16.9616 8.52477 16.9294C8.21851 16.833 7.91225 16.9294 7.8612 17.1223Z" fill="white"/>
</svg>
