<svg width="143" height="44" viewBox="0 0 143 44" fill="none" xmlns="http://www.w3.org/2000/svg">
<path d="M61.624 31.66C62.512 31.66 63.288 31.832 63.952 32.176C64.624 32.512 65.14 33 65.5 33.64C65.868 34.272 66.052 35.012 66.052 35.86C66.052 36.708 65.868 37.444 65.5 38.068C65.14 38.692 64.624 39.172 63.952 39.508C63.288 39.836 62.512 40 61.624 40H58.9V31.66H61.624ZM61.624 38.884C62.6 38.884 63.348 38.62 63.868 38.092C64.388 37.564 64.648 36.82 64.648 35.86C64.648 34.892 64.388 34.136 63.868 33.592C63.348 33.048 62.6 32.776 61.624 32.776H60.268V38.884H61.624ZM72.4358 38.296H68.9438L68.3438 40H66.9158L69.9038 31.648H71.4878L74.4758 40H73.0358L72.4358 38.296ZM72.0518 37.18L70.6958 33.304L69.3278 37.18H72.0518ZM78.523 40.084C77.963 40.084 77.459 39.988 77.011 39.796C76.563 39.596 76.211 39.316 75.955 38.956C75.699 38.596 75.571 38.176 75.571 37.696H77.035C77.067 38.056 77.207 38.352 77.455 38.584C77.711 38.816 78.067 38.932 78.523 38.932C78.995 38.932 79.363 38.82 79.627 38.596C79.891 38.364 80.023 38.068 80.023 37.708C80.023 37.428 79.939 37.2 79.771 37.024C79.611 36.848 79.407 36.712 79.159 36.616C78.919 36.52 78.583 36.416 78.151 36.304C77.607 36.16 77.163 36.016 76.819 35.872C76.483 35.72 76.195 35.488 75.955 35.176C75.715 34.864 75.595 34.448 75.595 33.928C75.595 33.448 75.715 33.028 75.955 32.668C76.195 32.308 76.531 32.032 76.963 31.84C77.395 31.648 77.895 31.552 78.463 31.552C79.271 31.552 79.931 31.756 80.443 32.164C80.963 32.564 81.251 33.116 81.307 33.82H79.795C79.771 33.516 79.627 33.256 79.363 33.04C79.099 32.824 78.751 32.716 78.319 32.716C77.927 32.716 77.607 32.816 77.359 33.016C77.111 33.216 76.987 33.504 76.987 33.88C76.987 34.136 77.063 34.348 77.215 34.516C77.375 34.676 77.575 34.804 77.815 34.9C78.055 34.996 78.383 35.1 78.799 35.212C79.351 35.364 79.799 35.516 80.143 35.668C80.495 35.82 80.791 36.056 81.031 36.376C81.279 36.688 81.403 37.108 81.403 37.636C81.403 38.06 81.287 38.46 81.055 38.836C80.831 39.212 80.499 39.516 80.059 39.748C79.627 39.972 79.115 40.084 78.523 40.084ZM89.6772 31.66V40H88.3092V36.352H84.3852V40H83.0172V31.66H84.3852V35.236H88.3092V31.66H89.6772ZM95.9421 35.716C96.3901 35.796 96.7701 36.032 97.0821 36.424C97.3941 36.816 97.5501 37.26 97.5501 37.756C97.5501 38.18 97.4381 38.564 97.2141 38.908C96.9981 39.244 96.6821 39.512 96.2661 39.712C95.8501 39.904 95.3661 40 94.8141 40H91.4781V31.66H94.6581C95.2261 31.66 95.7141 31.756 96.1221 31.948C96.5301 32.14 96.8381 32.4 97.0461 32.728C97.2541 33.048 97.3581 33.408 97.3581 33.808C97.3581 34.288 97.2301 34.688 96.9741 35.008C96.7181 35.328 96.3741 35.564 95.9421 35.716ZM92.8461 35.164H94.5381C94.9861 35.164 95.3341 35.064 95.5821 34.864C95.8381 34.656 95.9661 34.36 95.9661 33.976C95.9661 33.6 95.8381 33.308 95.5821 33.1C95.3341 32.884 94.9861 32.776 94.5381 32.776H92.8461V35.164ZM94.6941 38.884C95.1581 38.884 95.5221 38.772 95.7861 38.548C96.0501 38.324 96.1821 38.012 96.1821 37.612C96.1821 37.204 96.0421 36.88 95.7621 36.64C95.4821 36.4 95.1101 36.28 94.6461 36.28H92.8461V38.884H94.6941ZM102.841 40.084C102.065 40.084 101.349 39.904 100.693 39.544C100.045 39.176 99.5287 38.668 99.1447 38.02C98.7687 37.364 98.5807 36.628 98.5807 35.812C98.5807 34.996 98.7687 34.264 99.1447 33.616C99.5287 32.968 100.045 32.464 100.693 32.104C101.349 31.736 102.065 31.552 102.841 31.552C103.625 31.552 104.341 31.736 104.989 32.104C105.645 32.464 106.161 32.968 106.537 33.616C106.913 34.264 107.101 34.996 107.101 35.812C107.101 36.628 106.913 37.364 106.537 38.02C106.161 38.668 105.645 39.176 104.989 39.544C104.341 39.904 103.625 40.084 102.841 40.084ZM102.841 38.896C103.393 38.896 103.885 38.772 104.317 38.524C104.749 38.268 105.085 37.908 105.325 37.444C105.573 36.972 105.697 36.428 105.697 35.812C105.697 35.196 105.573 34.656 105.325 34.192C105.085 33.728 104.749 33.372 104.317 33.124C103.885 32.876 103.393 32.752 102.841 32.752C102.289 32.752 101.797 32.876 101.365 33.124C100.933 33.372 100.593 33.728 100.345 34.192C100.105 34.656 99.9847 35.196 99.9847 35.812C99.9847 36.428 100.105 36.972 100.345 37.444C100.593 37.908 100.933 38.268 101.365 38.524C101.797 38.772 102.289 38.896 102.841 38.896ZM113.475 38.296H109.983L109.383 40H107.955L110.943 31.648H112.527L115.515 40H114.075L113.475 38.296ZM113.091 37.18L111.735 33.304L110.367 37.18H113.091ZM121.146 40L119.226 36.664H118.182V40H116.814V31.66H119.694C120.334 31.66 120.874 31.772 121.314 31.996C121.762 32.22 122.094 32.52 122.31 32.896C122.534 33.272 122.646 33.692 122.646 34.156C122.646 34.7 122.486 35.196 122.166 35.644C121.854 36.084 121.37 36.384 120.714 36.544L122.778 40H121.146ZM118.182 35.572H119.694C120.206 35.572 120.59 35.444 120.846 35.188C121.11 34.932 121.242 34.588 121.242 34.156C121.242 33.724 121.114 33.388 120.858 33.148C120.602 32.9 120.214 32.776 119.694 32.776H118.182V35.572ZM127.12 31.66C128.008 31.66 128.784 31.832 129.448 32.176C130.12 32.512 130.636 33 130.996 33.64C131.364 34.272 131.548 35.012 131.548 35.86C131.548 36.708 131.364 37.444 130.996 38.068C130.636 38.692 130.12 39.172 129.448 39.508C128.784 39.836 128.008 40 127.12 40H124.396V31.66H127.12ZM127.12 38.884C128.096 38.884 128.844 38.62 129.364 38.092C129.884 37.564 130.144 36.82 130.144 35.86C130.144 34.892 129.884 34.136 129.364 33.592C128.844 33.048 128.096 32.776 127.12 32.776H125.764V38.884H127.12Z" fill="#000080"/>
<path d="M74.746 6.748L68.272 25H62.708L56.234 6.748H60.966L65.49 20.528L70.04 6.748H74.746ZM81.0502 10.31V14.002H87.0042V17.434H81.0502V21.438H87.7842V25H76.6042V6.748H87.7842V10.31H81.0502ZM106.999 25H102.553L95.1166 13.742V25H90.6706V6.748H95.1166L102.553 18.058V6.748H106.999V25ZM114.589 6.748V17.668C114.589 18.76 114.858 19.6007 115.395 20.19C115.933 20.7793 116.721 21.074 117.761 21.074C118.801 21.074 119.599 20.7793 120.153 20.19C120.708 19.6007 120.985 18.76 120.985 17.668V6.748H125.431V17.642C125.431 19.2713 125.085 20.6493 124.391 21.776C123.698 22.9027 122.762 23.752 121.583 24.324C120.422 24.896 119.122 25.182 117.683 25.182C116.245 25.182 114.953 24.9047 113.809 24.35C112.683 23.778 111.79 22.9287 111.131 21.802C110.473 20.658 110.143 19.2713 110.143 17.642V6.748H114.589ZM135.157 25.182C133.823 25.182 132.627 24.9653 131.569 24.532C130.512 24.0987 129.663 23.4573 129.021 22.608C128.397 21.7587 128.068 20.736 128.033 19.54H132.765C132.835 20.216 133.069 20.736 133.467 21.1C133.866 21.4467 134.386 21.62 135.027 21.62C135.686 21.62 136.206 21.4727 136.587 21.178C136.969 20.866 137.159 20.4413 137.159 19.904C137.159 19.4533 137.003 19.0807 136.691 18.786C136.397 18.4913 136.024 18.2487 135.573 18.058C135.14 17.8673 134.516 17.6507 133.701 17.408C132.523 17.044 131.561 16.68 130.815 16.316C130.07 15.952 129.429 15.4147 128.891 14.704C128.354 13.9933 128.085 13.066 128.085 11.922C128.085 10.2233 128.701 8.89733 129.931 7.944C131.162 6.97333 132.765 6.488 134.741 6.488C136.752 6.488 138.373 6.97333 139.603 7.944C140.834 8.89733 141.493 10.232 141.579 11.948H136.769C136.735 11.3587 136.518 10.8993 136.119 10.57C135.721 10.2233 135.209 10.05 134.585 10.05C134.048 10.05 133.615 10.1973 133.285 10.492C132.956 10.7693 132.791 11.1767 132.791 11.714C132.791 12.3033 133.069 12.7627 133.623 13.092C134.178 13.4213 135.045 13.7767 136.223 14.158C137.402 14.5567 138.355 14.938 139.083 15.302C139.829 15.666 140.47 16.1947 141.007 16.888C141.545 17.5813 141.813 18.474 141.813 19.566C141.813 20.606 141.545 21.5507 141.007 22.4C140.487 23.2493 139.725 23.9253 138.719 24.428C137.714 24.9307 136.527 25.182 135.157 25.182Z" fill="#000080"/>
<rect width="44" height="44" rx="10" fill="#000080"/>
<path d="M22.0002 6.41797C16.2802 6.41797 11.1428 9.72815 8.86538 14.8486C8.75945 15.1072 8.86538 15.4175 9.1302 15.521C9.39501 15.6244 9.71279 15.521 9.81871 15.2624C10.9839 12.6763 12.9435 10.5557 15.3269 9.21094C14.5854 9.93504 13.9498 10.8143 13.4732 11.7453C13.2613 12.1591 13.3143 12.6763 13.632 12.9866C14.1087 13.5038 15.0091 13.2452 15.2739 12.9866C15.4857 12.7797 15.4328 12.5211 15.2739 12.2625C15.0091 11.8487 14.4265 12.2625 14.4265 12.2625C14.4265 12.2625 15.3798 9.52127 19.0343 7.76273C19.6698 7.60757 20.2524 7.55584 20.888 7.50412C20.3583 8.02134 19.7758 8.48683 19.0872 8.90061C19.0872 8.90061 16.6509 10.3488 16.2802 10.6591C16.0683 10.866 16.0683 11.1246 16.2272 11.3832C16.492 11.7453 16.8628 11.5384 16.9687 11.435C17.3395 11.1764 19.6698 9.77988 19.6698 9.77988C21.0469 9.21094 22.4769 7.50412 22.4769 7.50412C24.8602 7.60757 27.0846 8.27995 28.9913 9.46955L27.6672 10.7626C26.8728 11.5384 26.1843 12.0556 25.4957 12.4177C23.748 13.4004 22.3709 14.8486 21.4706 16.6071C21.2587 17.0209 21.3117 17.5381 21.6295 17.8485C22.1591 18.3139 23.0065 18.1071 23.2713 17.8485L24.1717 16.9692C24.3835 16.7623 24.3835 16.452 24.1717 16.2451C23.9598 16.0382 23.642 16.0382 23.4302 16.2451L22.4239 17.1243C22.4239 17.1243 23.2713 14.7452 26.0254 13.2969C26.8198 12.8832 27.5613 12.2625 28.4087 11.435L29.8917 9.98676C30.1565 10.1936 30.4213 10.4005 30.6861 10.6074L29.0443 12.2108C28.4087 12.7797 27.8261 13.2969 27.1376 13.7107L25.6017 14.59C25.3369 14.7452 25.2309 15.0555 25.3898 15.3141C25.6017 15.6761 26.0254 15.5727 26.1313 15.521L27.6672 14.6417C28.4617 14.1762 29.1502 13.6073 29.7857 12.9866L31.4806 11.3315C31.8513 11.6936 32.1691 12.0556 32.4869 12.4177L27.8261 16.9692C26.6609 18.1071 25.7606 19.4001 25.178 20.7966C24.5424 22.2448 23.695 23.6413 22.5828 24.9343C22.3709 25.1412 22.4239 25.4515 22.6357 25.6584C22.9006 25.917 23.2713 25.7101 23.3772 25.6067C24.5424 24.2619 25.4428 22.762 26.1313 21.2104C26.6609 19.9173 27.4554 18.7794 28.5676 17.6933L33.1224 13.2452C33.758 14.1762 34.2346 15.1589 34.6054 16.1934L32.222 18.5726C31.2157 19.3484 30.3154 21.2104 30.3154 21.2104C29.6269 22.3482 28.6206 23.3309 27.4554 24.0033C26.1843 24.7792 24.9661 25.6584 23.9598 26.6411L22.4769 28.0893C22.265 28.2962 21.9472 28.2962 21.7354 28.0893C21.6295 27.9859 21.4706 27.6756 21.7354 27.3652C21.9472 27.1583 21.9472 26.848 21.7354 26.6411C21.5235 26.4342 21.1528 26.4342 20.9939 26.6411C20.0935 27.6756 20.6761 28.5031 20.9939 28.8134C21.8413 29.641 22.9006 29.1238 23.2183 28.8134L24.7013 27.3652C25.6546 26.4342 26.7669 25.555 27.985 24.8309C29.3091 24.055 30.3683 22.9689 31.1628 21.7276C31.1628 21.7276 32.0102 20.0208 32.9635 19.2967L34.9232 17.3312C35.135 18.3139 35.2409 19.3484 35.2409 20.3828C35.2409 26.5377 30.792 31.7099 24.9132 33.0029C25.178 32.796 25.4428 32.6408 25.7076 32.4857C25.9724 32.3305 26.0254 32.0202 25.8665 31.7616C25.7076 31.503 25.3898 31.4512 25.125 31.6064C24.1187 32.1236 22.9006 33.3132 22.9006 33.3132C22.5828 33.3132 21.6295 33.3649 21.4706 33.3132L22.212 32.5891C22.9006 31.9167 23.4832 31.503 24.1187 31.1409L25.6546 30.2616C26.502 29.7961 27.1906 29.2272 27.7732 28.6066C27.7732 28.6066 28.7265 27.6756 28.7795 27.7273C28.7795 27.7273 27.7732 29.4341 27.1376 30.1065C26.9257 30.3134 26.9257 30.6237 27.1376 30.8306C27.3495 31.0375 27.6672 31.0375 27.8791 30.8306C28.6206 30.0548 29.2561 29.2272 29.7328 28.2445C29.9446 27.8307 29.8387 27.3135 29.5739 27.0032C28.9913 26.5377 28.1969 26.7446 27.932 27.0032L27.0317 27.8824C26.502 28.4514 25.8665 28.9169 25.125 29.3307L23.5891 30.2099C22.8476 30.6237 22.212 31.1409 21.4706 31.865L20.0935 33.1581C17.7102 32.8477 15.5387 31.865 13.738 30.4685L15.2739 28.9686C16.0683 28.1928 16.7569 27.6756 17.4454 27.3135C19.1932 26.3308 20.5702 24.8826 21.4706 23.1241C21.6824 22.7103 21.6824 22.1931 21.2587 21.831C21.0469 21.6241 20.1465 21.3655 19.6698 21.831L18.7695 22.7103C18.2398 23.2792 17.6043 23.7447 16.8628 24.1585L15.3269 25.0378C14.4795 25.5033 13.7909 26.0722 13.2083 26.6929L11.5665 28.2962C11.3017 27.9342 11.0369 27.6238 10.825 27.2618L15.3798 22.8137C16.598 21.5724 17.4454 20.2794 18.028 18.9346C18.8224 17.0209 20.0406 15.2624 21.6295 13.7107L22.212 13.1418C22.5298 12.8315 22.9535 11.6936 22.212 10.9695C21.5765 10.3488 20.6232 10.3488 19.9876 10.9695L18.5046 12.4177C17.5513 13.3487 16.4391 14.2279 15.2209 14.952C13.8439 15.7796 12.7846 16.814 12.0432 18.0553C12.0432 18.0553 11.0898 20.0208 10.2954 20.4863L8.97131 21.7793C8.81242 21.3655 8.75945 20.9 8.75945 20.3828C8.75945 20.0725 8.5476 19.8656 8.22982 19.8656C7.91205 19.8656 7.7002 20.0725 7.7002 20.3828C7.7002 28.0893 14.1087 34.3477 22.0002 34.3477C29.8917 34.3477 36.3002 28.0893 36.3002 20.3828C36.3002 12.6763 29.8917 6.41797 22.0002 6.41797ZM9.07723 23.1241L10.9309 21.3138C12.0432 20.4345 12.8906 18.676 12.8906 18.676C13.5791 17.5381 14.5324 16.6071 15.7506 15.883C17.0217 15.1072 18.2398 14.2279 19.2461 13.2452L20.7291 11.797C20.9409 11.5901 21.2057 11.5901 21.4706 11.797C21.7883 12.0556 21.5765 12.4177 21.4706 12.5211L20.888 13.0901C19.1932 14.7452 17.922 16.6071 17.0746 18.6243C16.545 19.8656 15.7506 21.0552 14.6383 22.1931L10.2954 26.4342C9.71279 25.3481 9.28908 24.2619 9.07723 23.1241ZM12.255 29.1238L13.9498 27.4687C14.4795 26.8997 15.115 26.4342 15.8565 26.0205L17.3924 25.1412C18.2398 24.6757 18.9283 24.1068 19.5109 23.4861C19.5109 23.4861 20.4643 22.6068 20.5172 22.6068C20.5172 22.6068 18.4517 25.6067 16.9157 26.4342C16.1213 26.848 15.3798 27.4687 14.5324 28.2962L12.9435 29.8479C12.7317 29.5893 12.4669 29.3824 12.255 29.1238Z" fill="white"/>
<path d="M7.8612 17.1223C7.81016 17.2829 7.75911 17.4758 7.70807 17.6686C7.65703 17.8293 7.8612 18.0221 8.11642 18.0543C8.16747 18.0543 8.62686 18.0864 8.72895 17.7972C8.77999 17.6365 8.83104 17.4758 8.88208 17.3151C8.93313 17.1544 8.77999 16.9616 8.52477 16.9294C8.21851 16.833 7.91225 16.9294 7.8612 17.1223Z" fill="white"/>
</svg>
