<svg width="16" height="16" viewBox="0 0 16 16" fill="none" xmlns="http://www.w3.org/2000/svg">
<g clip-path="url(#clip0_0_586)">
<path d="M3.6805 5.44834C3.55862 5.32646 3.3605 5.32646 3.23866 5.44834C3.11647 5.57053 3.11647 5.76834 3.23866 5.89021C3.36053 6.0124 3.55866 6.0124 3.6805 5.89021C3.80266 5.76834 3.80266 5.57053 3.6805 5.44834ZM7.91247 13.9912C8.05025 13.8046 8.12472 13.5798 8.12472 13.3434C8.12472 12.7403 7.63409 12.2497 7.031 12.2497H1.71869C1.42641 12.2497 1.15175 12.3634 0.945281 12.5699C0.738719 12.7764 0.624969 13.0511 0.624969 13.3434C0.624758 13.5764 0.699414 13.8034 0.837937 13.9909C0.340344 14.2525 0 14.7744 0 15.3745V15.687C0 15.8596 0.139938 15.9995 0.3125 15.9995H8.43719C8.60975 15.9995 8.74969 15.8596 8.74969 15.687V15.3745C8.74969 14.7747 8.40969 14.253 7.91247 13.9912ZM1.38719 13.0118C1.43062 12.9682 1.48229 12.9335 1.53919 12.91C1.59609 12.8864 1.6571 12.8744 1.71869 12.8746H7.031C7.28947 12.8746 7.49972 13.0849 7.49972 13.3433C7.49972 13.4686 7.45097 13.5863 7.36247 13.6748C7.31903 13.7185 7.26737 13.7531 7.21047 13.7767C7.15356 13.8002 7.09255 13.8122 7.03097 13.8121H1.71869C1.46022 13.8121 1.24997 13.6018 1.24997 13.3433C1.24997 13.2181 1.29869 13.1003 1.38719 13.0118ZM0.624969 15.3745C0.624969 14.8576 1.04553 14.4371 1.56244 14.4371H7.18725C7.70416 14.4371 8.12472 14.8576 8.12472 15.3745H0.624969Z" fill="#222222"/>
<path d="M15.7095 13.1288C15.6033 12.9644 15.4767 12.8189 15.3331 12.6966L13.8729 11.423C13.8613 11.4056 13.8481 11.3894 13.8333 11.3746C13.8086 11.35 13.7799 11.3297 13.7486 11.3146L12.8655 10.5445L8.77835 6.97912C8.94566 6.80422 9.03779 6.5755 9.03779 6.33228C9.03779 6.08172 8.94026 5.84625 8.76298 5.669C8.68771 5.59379 8.60007 5.53209 8.50388 5.48659L8.88201 5.10847C8.98737 5.13657 9.09593 5.15084 9.20498 5.15094C9.52501 5.15091 9.84507 5.02909 10.0887 4.78547C10.3249 4.54931 10.4549 4.23541 10.4549 3.90156C10.4549 3.56772 10.3249 3.25381 10.0887 3.01766L7.43723 0.366219C7.20107 0.130062 6.88713 0 6.55319 0C6.21941 0 5.90557 0.130062 5.66945 0.366219C5.34307 0.692594 5.23563 1.156 5.34645 1.57294L1.57379 5.34556C1.46824 5.31746 1.35948 5.30322 1.25026 5.30322C0.916258 5.30322 0.602476 5.43319 0.366508 5.66912C-0.120867 6.1565 -0.120867 6.94953 0.366508 7.43694L3.01798 10.0884C3.26169 10.3321 3.58179 10.454 3.90188 10.454C4.22201 10.454 4.5421 10.3321 4.78582 10.0884C5.1122 9.76203 5.21963 9.29866 5.10882 8.88172L5.48616 8.50434C5.53217 8.60027 5.59416 8.68768 5.66948 8.76281C5.84654 8.93987 6.08194 9.03741 6.33244 9.03741C6.57541 9.03741 6.80404 8.94544 6.97919 8.77831L11.3325 13.78C11.3445 13.7987 11.3585 13.8166 11.3749 13.833C11.3805 13.8386 11.3864 13.8437 11.3923 13.8487L12.6895 15.3392C12.7222 15.3776 12.7564 15.4148 12.792 15.4504C13.1483 15.8066 13.6189 15.9999 14.113 15.9999C14.2001 15.9999 14.288 15.9939 14.376 15.9817C14.9644 15.9002 15.4729 15.5482 15.7711 15.0158C16.0978 14.4323 16.0735 13.6914 15.7095 13.1288ZM6.11141 0.808156C6.16929 0.749934 6.23814 0.703768 6.31398 0.672329C6.38981 0.64089 6.47113 0.624804 6.55323 0.625C6.63537 0.624779 6.71673 0.640853 6.79262 0.672292C6.86851 0.703731 6.9374 0.74991 6.99532 0.808156L9.64682 3.45962C9.70505 3.51753 9.75122 3.5864 9.78265 3.66227C9.81408 3.73813 9.83016 3.81948 9.82994 3.90159C9.83016 3.98371 9.81408 4.06506 9.78265 4.14093C9.75121 4.21679 9.70503 4.28567 9.64679 4.34356C9.40319 4.58722 9.00676 4.58722 8.76316 4.34356L6.11157 1.69197L6.11141 1.69181C5.86776 1.44819 5.86776 1.05178 6.11141 0.808156ZM4.34388 9.6465C4.10019 9.89019 3.7036 9.89022 3.45991 9.6465L0.808445 6.99503C0.564727 6.75131 0.564727 6.35481 0.808445 6.11106C0.92632 5.99316 1.08326 5.92822 1.25026 5.92822C1.41723 5.92822 1.57407 5.99312 1.69191 6.11094L4.34385 8.76287C4.58754 9.00647 4.58754 9.40291 4.34388 9.6465ZM5.65957 7.44712L4.78579 8.32094L2.13404 5.66919L5.66945 2.13372L8.32116 4.78547L7.44579 5.66087C7.44294 5.66356 7.44016 5.66619 7.43716 5.66916L5.67035 7.436C5.66669 7.43959 5.66316 7.44334 5.65957 7.44712ZM6.77538 8.09903L6.77354 8.10087L6.55348 8.32094C6.52451 8.35005 6.49005 8.37312 6.45211 8.38883C6.41416 8.40453 6.37348 8.41256 6.33241 8.41244C6.29135 8.41256 6.25067 8.40453 6.21273 8.38882C6.17478 8.37311 6.14034 8.35002 6.11138 8.3209C6.08224 8.29193 6.05913 8.25745 6.0434 8.21948C6.02767 8.1815 6.01964 8.14079 6.01976 8.09969C6.01976 8.01787 6.05098 7.94091 6.10763 7.88284L7.88266 6.10781C8.00432 5.9895 8.20101 5.99097 8.32123 6.11106C8.35036 6.14005 8.37346 6.17452 8.38918 6.2125C8.4049 6.25047 8.41294 6.29118 8.41282 6.33228C8.41296 6.37334 8.40493 6.41401 8.3892 6.45194C8.37347 6.48986 8.35035 6.52428 8.32119 6.55319L8.10241 6.77197C8.10091 6.77344 8.09942 6.77493 8.09794 6.77644L6.77538 8.09903ZM7.42251 8.33575L8.33582 7.42244L12.2028 10.7954L10.7917 12.2065L7.42251 8.33575ZM11.203 12.6791L12.6748 11.2072L13.1469 11.619L11.6143 13.1517L11.203 12.6791ZM15.2259 14.7105C15.0242 15.0706 14.6832 15.3082 14.2903 15.3626C13.8984 15.4169 13.5133 15.2878 13.2339 15.0085C13.21 14.9846 13.1872 14.9598 13.1654 14.9341L13.1624 14.9305L12.0255 13.6242L13.619 12.0307L14.9237 13.1687L14.9267 13.1713C15.0243 13.2544 15.111 13.3541 15.1845 13.468C15.4208 13.8332 15.4374 14.3326 15.2259 14.7105Z" fill="#222222"/>
<path d="M5.8901 3.2385C5.76803 3.11646 5.57022 3.11646 5.44816 3.2385L4.12229 4.56437C4.00025 4.6864 4.00025 4.88428 4.12229 5.00628C4.15127 5.03534 4.18571 5.05839 4.22363 5.0741C4.26156 5.0898 4.30221 5.09786 4.34325 5.09781C4.3843 5.09786 4.42495 5.08979 4.46287 5.07409C4.50079 5.05838 4.53523 5.03533 4.56422 5.00628L5.8901 3.6804C6.01213 3.5584 6.01213 3.36056 5.8901 3.2385Z" fill="#222222"/>
</g>
<defs>
<clipPath id="clip0_0_586">
<rect width="16" height="16" fill="white"/>
</clipPath>
</defs>
</svg>
