<svg width="23" height="20" viewBox="0 0 23 20" fill="none" xmlns="http://www.w3.org/2000/svg">
<path d="M11.5501 10.8694L15.5499 13.8692C15.6199 13.9217 15.6996 13.9599 15.7844 13.9817C15.8692 14.0034 15.9575 14.0082 16.0441 13.9958C16.1308 13.9834 16.2142 13.9541 16.2895 13.9095C16.3648 13.8649 16.4306 13.8059 16.4831 13.7359C16.5357 13.6658 16.5739 13.5861 16.5956 13.5013C16.6173 13.4165 16.6222 13.3283 16.6098 13.2416C16.5974 13.1549 16.5681 13.0716 16.5235 12.9962C16.4789 12.9209 16.4199 12.8551 16.3498 12.8026L12.6467 9.99943V4.33313C12.6467 4.15633 12.5765 3.98677 12.4515 3.86175C12.3265 3.73674 12.1569 3.6665 11.9801 3.6665C11.8033 3.6665 11.6337 3.73674 11.5087 3.86175C11.3837 3.98677 11.3135 4.15633 11.3135 4.33313V10.3327C11.3135 10.5541 11.4061 10.7534 11.5501 10.8694Z" fill="white"/>
<path d="M12.3129 0C7.43358 0 3.26685 3.52178 2.45357 8.3328L2.20025 7.95616C2.10124 7.80941 1.948 7.70801 1.77422 7.67426C1.60045 7.6405 1.42039 7.67716 1.27364 7.77617C1.1269 7.87518 1.0255 8.02842 0.991741 8.2022C0.957987 8.37597 0.994646 8.55603 1.09365 8.70278L2.4269 10.7027C2.48105 10.785 2.55277 10.8543 2.63692 10.9056C2.72107 10.9569 2.81554 10.9889 2.91354 10.9993H2.9802C3.06761 10.999 3.15411 10.9815 3.23475 10.9477C3.31539 10.914 3.38859 10.8647 3.45017 10.8026L5.11673 9.13608C5.23573 9.00978 5.30084 8.84208 5.29826 8.66856C5.29568 8.49504 5.2256 8.32936 5.10289 8.20665C4.98018 8.08394 4.8145 8.01386 4.64098 8.01128C4.46746 8.0087 4.29976 8.07381 4.17346 8.19281L3.76015 8.60945C4.52777 3.88509 8.97982 0.677957 13.7038 1.44557C18.4279 2.21319 21.6357 6.66491 20.8681 11.3893C20.1864 15.5843 16.563 18.6661 12.3129 18.6655C10.9922 18.6894 9.68518 18.394 8.50309 17.8044C7.32099 17.2148 6.29878 16.3485 5.52337 15.279C5.4726 15.2077 5.40827 15.147 5.33405 15.1005C5.25984 15.0541 5.1772 15.0226 5.09085 15.0081C5.00449 14.9936 4.91612 14.9962 4.83077 15.0158C4.74543 15.0354 4.66478 15.0716 4.59343 15.1224C4.52208 15.1731 4.46144 15.2375 4.41495 15.3117C4.36846 15.3859 4.33705 15.4685 4.3225 15.5549C4.30796 15.6412 4.31056 15.7296 4.33017 15.815C4.34977 15.9003 4.386 15.981 4.43677 16.0523C5.33473 17.2958 6.51977 18.304 7.89106 18.9911C9.26236 19.6782 10.7793 20.0238 12.3129 19.9987C17.8356 19.9987 22.3123 15.522 22.3123 9.99936C22.3123 4.47671 17.8356 0 12.3129 0Z" fill="white"/>
</svg>
