<svg width="16" height="16" viewBox="0 0 16 16" fill="none" xmlns="http://www.w3.org/2000/svg">
<g clip-path="url(#clip0_0_579)">
<path d="M15.1665 15.8334H10.0665C9.69984 15.8334 9.39984 15.5334 9.39984 15.1667V12C9.39984 11.2 8.7665 10.5667 7.9665 10.5667C7.1665 10.5667 6.53317 11.2 6.53317 12V15.1667C6.53317 15.5334 6.23317 15.8334 5.8665 15.8334H0.833171C0.466504 15.8334 0.166504 15.5334 0.166504 15.1667V6.63338C0.166504 6.03338 0.466504 5.46672 0.933171 5.13338L7.63317 0.300049C7.8665 0.133382 8.1665 0.133382 8.39984 0.300049L15.0998 5.13338C15.5665 5.46672 15.8665 6.03338 15.8665 6.63338V15.2C15.8332 15.5334 15.5332 15.8334 15.1665 15.8334ZM10.7332 14.5334H14.5332V6.63338C14.5332 6.46672 14.4332 6.30005 14.2998 6.20005L7.99984 1.63338L1.69984 6.16672C1.5665 6.26672 1.4665 6.43338 1.4665 6.60005V14.5H5.2665V12C5.2665 10.5 6.49984 9.26672 7.99984 9.26672C9.49984 9.26672 10.7332 10.5 10.7332 12V14.5334Z" fill="#FFA500"/>
</g>
<defs>
<clipPath id="clip0_0_579">
<rect width="16" height="16" fill="white"/>
</clipPath>
</defs>
</svg>
