<svg width="20" height="20" viewBox="0 0 20 20" fill="none" xmlns="http://www.w3.org/2000/svg">
<g id="Frame" clip-path="url(#clip0_0_470)">
<g id="Group">
<path id="Vector" d="M4.60063 6.8103C4.44828 6.65796 4.20062 6.65796 4.04832 6.8103C3.89559 6.96304 3.89559 7.2103 4.04832 7.36265C4.20066 7.51538 4.44832 7.51538 4.60063 7.36265C4.75332 7.2103 4.75332 6.96304 4.60063 6.8103ZM9.89059 17.4889C10.0628 17.2557 10.1559 16.9746 10.1559 16.6791C10.1559 15.9253 9.54262 15.3119 8.78875 15.3119H2.14836C1.78301 15.3119 1.43969 15.4541 1.1816 15.7123C0.923398 15.9704 0.781211 16.3137 0.781211 16.6791C0.780948 16.9704 0.874268 17.2542 1.04742 17.4885C0.42543 17.8155 0 18.4678 0 19.218V19.6087C0 19.8244 0.174922 19.9993 0.390625 19.9993H10.5465C10.7622 19.9993 10.9371 19.8244 10.9371 19.6087V19.218C10.9371 18.4682 10.5121 17.8161 9.89059 17.4889ZM1.73398 16.2646C1.78828 16.2101 1.85286 16.1668 1.92399 16.1374C1.99512 16.1079 2.07138 16.0929 2.14836 16.0931H8.78875C9.11184 16.0931 9.37465 16.356 9.37465 16.679C9.37465 16.8357 9.31371 16.9828 9.20309 17.0934C9.14879 17.148 9.08421 17.1913 9.01308 17.2207C8.94195 17.2501 8.86569 17.2652 8.78871 17.265H2.14836C1.82527 17.265 1.56246 17.0021 1.56246 16.6791C1.56246 16.5225 1.62336 16.3753 1.73398 16.2646ZM0.781211 19.218C0.781211 18.5719 1.30691 18.0462 1.95305 18.0462H8.98406C9.6302 18.0462 10.1559 18.5719 10.1559 19.218H0.781211Z" fill="white"/>
<path id="Vector_2" d="M19.6366 16.4111C19.5039 16.2055 19.3457 16.0237 19.1661 15.8707L17.3409 14.2788C17.3264 14.257 17.3098 14.2367 17.2913 14.2182C17.2605 14.1875 17.2247 14.1622 17.1855 14.1433L16.0817 13.1806L10.9727 8.72391C11.1818 8.50527 11.297 8.21937 11.297 7.91535C11.297 7.60215 11.1751 7.30781 10.9535 7.08625C10.8594 6.99224 10.7498 6.91511 10.6296 6.85824L11.1023 6.38559C11.234 6.42071 11.3697 6.43855 11.506 6.43867C11.906 6.43863 12.3061 6.28637 12.6106 5.98184C12.9059 5.68664 13.0684 5.29426 13.0684 4.87695C13.0684 4.45965 12.9059 4.06727 12.6107 3.77207L9.29629 0.457773C9.00109 0.162578 8.60867 0 8.19125 0C7.77402 0 7.38172 0.162578 7.08656 0.457773C6.67859 0.865742 6.5443 1.445 6.68281 1.96617L1.96699 6.68195C1.83506 6.64682 1.69911 6.62903 1.56258 6.62902C1.14508 6.62902 0.752851 6.79148 0.457891 7.08641C-0.151328 7.69562 -0.151328 8.68691 0.457891 9.29617L3.77223 12.6105C4.07687 12.9152 4.47699 13.0675 4.87711 13.0675C5.27727 13.0675 5.67738 12.9152 5.98203 12.6105C6.39 12.2025 6.5243 11.6233 6.38578 11.1021L6.85746 10.6304C6.91497 10.7503 6.99245 10.8596 7.0866 10.9535C7.30793 11.1748 7.60219 11.2968 7.91531 11.2968C8.21902 11.2968 8.5048 11.1818 8.72375 10.9729L14.1654 17.225C14.1804 17.2484 14.1979 17.2707 14.2184 17.2912C14.2254 17.2982 14.2328 17.3046 14.2402 17.3109L15.8617 19.1739C15.9025 19.222 15.9452 19.2685 15.9898 19.313C16.4352 19.7582 17.0234 19.9998 17.641 19.9998C17.7498 19.9998 17.8597 19.9923 17.9698 19.9771C18.7053 19.8753 19.3409 19.4353 19.7137 18.7698C20.122 18.0403 20.0916 17.1143 19.6366 16.4111ZM7.63902 1.0102C7.71137 0.937417 7.79743 0.87971 7.89223 0.840411C7.98702 0.801113 8.08867 0.781005 8.19129 0.78125C8.29396 0.780973 8.39567 0.801066 8.49053 0.840365C8.58539 0.879663 8.67151 0.937388 8.74391 1.0102L12.0583 4.32453C12.1311 4.39691 12.1888 4.483 12.2281 4.57783C12.2674 4.67266 12.2875 4.77434 12.2872 4.87699C12.2875 4.97964 12.2674 5.08133 12.2281 5.17616C12.1888 5.27099 12.131 5.35708 12.0582 5.42945C11.7537 5.73402 11.2582 5.73402 10.9537 5.42945L7.63922 2.11496L7.63902 2.11477C7.33445 1.81023 7.33445 1.31473 7.63902 1.0102ZM5.42961 12.0581C5.125 12.3627 4.62926 12.3628 4.32465 12.0581L1.01031 8.74379C0.705664 8.43914 0.705664 7.94352 1.01031 7.63883C1.15766 7.49144 1.35383 7.41027 1.56258 7.41027C1.77129 7.41027 1.96734 7.49141 2.11465 7.63867L5.42957 10.9536C5.73418 11.2581 5.73418 11.7536 5.42961 12.0581ZM7.07422 9.30891L5.98199 10.4012L2.6673 7.08648L7.08656 2.66715L10.4012 5.98184L9.30699 7.07609C9.30344 7.07945 9.29996 7.08273 9.29621 7.08644L7.08769 9.295C7.08312 9.29949 7.07871 9.30418 7.07422 9.30891ZM8.46898 10.1238L8.46668 10.1261L8.1916 10.4012C8.15539 10.4376 8.11232 10.4664 8.06489 10.486C8.01746 10.5057 7.96661 10.5157 7.91527 10.5155C7.86394 10.5157 7.81309 10.5057 7.76566 10.486C7.71824 10.4664 7.67518 10.4375 7.63898 10.4011C7.60255 10.3649 7.57367 10.3218 7.55401 10.2743C7.53435 10.2269 7.5243 10.176 7.52445 10.1246C7.52445 10.0223 7.56348 9.92613 7.6343 9.85355L9.85309 7.63477C10.0052 7.48688 10.251 7.48871 10.4013 7.63883C10.4377 7.67506 10.4666 7.71816 10.4862 7.76562C10.5059 7.81309 10.5159 7.86398 10.5158 7.91535C10.516 7.96667 10.5059 8.01752 10.4863 8.06492C10.4666 8.11233 10.4377 8.15535 10.4012 8.19148L10.1278 8.46496C10.1259 8.4668 10.124 8.46867 10.1222 8.47055L8.46898 10.1238ZM9.27789 10.4197L10.4195 9.27805L15.2532 13.4943L13.4894 15.2581L9.27789 10.4197ZM14.0035 15.8488L15.8433 14.009L16.4334 14.5237L14.5176 16.4396L14.0035 15.8488ZM19.0321 18.3881C18.78 18.8382 18.3537 19.1353 17.8627 19.2033C17.3728 19.2711 16.8914 19.1097 16.5421 18.7606C16.5123 18.7308 16.4837 18.6998 16.4565 18.6676L16.4527 18.6632L15.0316 17.0303L17.0235 15.0384L18.6543 16.4609L18.6581 16.4642C18.7802 16.568 18.8885 16.6926 18.9804 16.835C19.2758 17.2915 19.2965 17.9157 19.0321 18.3881Z" fill="white"/>
<path id="Vector_3" d="M7.36274 4.04824C7.21017 3.8957 6.9629 3.8957 6.81032 4.04824L5.15298 5.70559C5.00044 5.85812 5.00044 6.10547 5.15298 6.25797C5.18921 6.2943 5.23226 6.32311 5.27967 6.34274C5.32707 6.36238 5.37788 6.37245 5.42919 6.37238C5.4805 6.37244 5.53131 6.36236 5.57871 6.34273C5.62611 6.3231 5.66916 6.29429 5.7054 6.25797L7.36274 4.60062C7.51528 4.44812 7.51528 4.20082 7.36274 4.04824Z" fill="white"/>
</g>
</g>
<defs>
<clipPath id="clip0_0_470">
<rect width="20" height="20" fill="white"/>
</clipPath>
</defs>
</svg>
