<svg width="77" height="64" viewBox="0 0 77 64" fill="none" xmlns="http://www.w3.org/2000/svg">
<path d="M23.6169 37.2136C23.9736 36.8569 23.9736 36.2624 23.6169 35.9057L20.7635 33.0523L24.4492 29.3666C24.8058 29.0099 24.8058 28.4155 24.4492 28.0588C24.0925 27.7021 23.498 27.7021 23.1413 28.0588L19.4556 31.7445L16.1266 28.4155C15.7699 28.0588 15.1755 28.0588 14.8188 28.4155C14.4621 28.7721 14.4621 29.3666 14.8188 29.7233L18.1478 33.0523L14.8188 36.3813C14.4621 36.738 14.4621 37.3325 14.8188 37.6891C15.1755 38.0458 15.7699 38.0458 16.1266 37.6891L19.4556 34.3601L22.3091 37.2136C22.7846 37.5702 23.2602 37.5702 23.6169 37.2136ZM23.2602 48.984C22.9035 49.3407 22.9035 49.9352 23.3791 50.2918C23.7358 50.6485 24.3303 50.6485 24.6869 50.173C30.5127 43.7527 40.4998 43.8716 46.2067 49.8163C46.5633 50.173 47.1578 50.173 47.5145 49.8163C47.8712 49.4596 47.8712 48.8651 47.5145 48.5084C40.9753 41.8504 29.7994 41.7315 23.2602 48.984Z" fill="#E0E9FF"/>
<path d="M67.7263 56.1176L70.8175 24.6108C70.9364 23.303 70.4609 21.9952 69.6286 21.044C68.7964 20.0929 67.4885 19.4984 66.1807 19.4984V11.2948C66.1807 8.20353 63.8028 5.70677 60.7116 5.58787L10.6574 4.87451C7.44732 4.87451 5.06945 7.37127 4.95056 10.3436V12.4837C3.52384 12.8404 2.4538 13.7915 1.85933 15.2182C1.14597 16.0505 0.670396 17.1205 0.432609 17.9528C-0.161858 20.0929 -0.0429646 22.3519 0.194822 24.6108C1.14597 35.0735 2.09712 45.4172 2.92937 55.8798C3.28605 60.3978 4.47499 62.3001 11.0141 62.6567C29.6804 63.6079 48.3467 63.489 67.013 63.1323C67.7263 63.1323 68.5586 63.1323 69.153 62.7756C69.8664 62.4189 70.342 61.7056 70.2231 60.9922C69.8664 59.4466 67.2507 59.6844 65.7051 59.5655C66.7752 58.8521 67.4885 57.6632 67.7263 56.1176ZM10.6574 6.77681L60.7116 7.49017C62.7328 7.49017 64.5162 9.27357 64.3973 11.2948V19.6173H46.92C45.6121 19.6173 44.3043 19.0228 43.3532 18.0717L40.6186 14.9805C39.1919 13.4348 37.1707 12.4837 35.0306 12.4837H6.73396V10.5814C6.73396 8.32242 8.51737 6.65791 10.6574 6.77681ZM63.0895 58.6144H9.46851C8.04179 58.6144 6.73396 57.5443 6.61507 55.9987L3.16716 17.2394C3.04827 15.5749 4.35609 14.1482 6.0206 14.1482H35.0306C36.6951 14.1482 38.2407 14.8616 39.3108 16.0505L42.0453 19.1417C43.2343 20.5684 45.0177 21.4007 46.92 21.4007H66.1807C67.013 21.4007 67.7263 21.7574 68.3208 22.3519C68.9152 22.9463 69.153 23.7786 69.0341 24.4919L65.9429 55.9987C65.824 57.4254 64.5162 58.6144 63.0895 58.6144Z" fill="#E0E9FF"/>
<path d="M50.6057 31.5068L53.2214 28.8911C53.5781 28.5344 53.5781 27.94 53.2214 27.5833C52.8647 27.2266 52.2702 27.2266 51.9136 27.5833L49.2979 30.1989L45.9689 26.8699C45.6122 26.5132 45.0177 26.5132 44.6611 26.8699C44.3044 27.2266 44.3044 27.8211 44.6611 28.1778L47.9901 31.5068L44.8989 34.598C44.5422 34.9547 44.5422 35.5491 44.8989 35.9058C45.2555 36.2625 45.85 36.2625 46.2067 35.9058L49.2979 32.8146L52.6269 36.1436C52.9836 36.5003 53.5781 36.5003 53.9348 36.1436C54.2914 35.7869 54.2914 35.1925 53.9348 34.8358L50.6057 31.5068ZM66.7753 0.35668C65.7052 1.7834 64.873 3.21012 64.2785 4.87463C64.1596 5.35021 64.3974 5.82578 64.873 5.94467C65.3485 6.06357 65.8241 5.82578 65.943 5.35021C66.4186 3.92348 67.1319 2.49676 68.0831 1.30783C68.4398 0.951147 68.3209 0.35668 67.9642 0C67.6075 0 67.1319 -3.5433e-07 66.7753 0.35668ZM74.3844 3.80459C74.1466 3.44791 73.5522 3.21012 73.1955 3.5668L67.6075 7.13361C67.2508 7.3714 67.1319 7.96586 67.3697 8.32254C67.6075 8.67922 68.202 8.91701 68.5587 8.56033L74.1466 4.99353C74.5033 4.75574 74.6222 4.16127 74.3844 3.80459ZM76.0489 10.2248L69.7476 10.7004C69.272 10.7004 68.9153 11.176 68.9153 11.6516C68.9153 12.1271 69.3909 12.4838 69.8665 12.4838L76.1678 12.0082C76.6434 12.0082 77.0001 11.5327 77.0001 11.0571C76.8812 10.5815 76.5245 10.2248 76.0489 10.2248Z" fill="#E0E9FF"/>
</svg>
