<svg width="23" height="20" viewBox="0 0 23 20" fill="none" xmlns="http://www.w3.org/2000/svg">
<path d="M11.5501 10.8694L15.5499 13.8692C15.6199 13.9217 15.6996 13.9599 15.7844 13.9817C15.8692 14.0034 15.9575 14.0082 16.0441 13.9958C16.1308 13.9834 16.2142 13.9541 16.2895 13.9095C16.3648 13.8649 16.4306 13.8059 16.4831 13.7359C16.5357 13.6658 16.5739 13.5861 16.5956 13.5013C16.6173 13.4165 16.6222 13.3283 16.6098 13.2416C16.5974 13.1549 16.5681 13.0716 16.5235 12.9962C16.4789 12.9209 16.4199 12.8551 16.3498 12.8026L12.6467 9.99943V4.33313C12.6467 4.15633 12.5765 3.98677 12.4515 3.86175C12.3265 3.73674 12.1569 3.6665 11.9801 3.6665C11.8033 3.6665 11.6337 3.73674 11.5087 3.86175C11.3837 3.98677 11.3135 4.15633 11.3135 4.33313V10.3327C11.3135 10.5541 11.4061 10.7534 11.5501 10.8694Z" fill="#9AA8D1"/>
<path d="M12.3134 0C7.43407 0 3.26734 3.52178 2.45406 8.3328L2.20074 7.95616C2.10173 7.80941 1.94848 7.70801 1.77471 7.67426C1.60094 7.6405 1.42087 7.67716 1.27413 7.77617C1.12739 7.87518 1.02598 8.02842 0.99223 8.2022C0.958475 8.37597 0.995134 8.55603 1.09414 8.70278L2.42739 10.7027C2.48153 10.785 2.55326 10.8543 2.63741 10.9056C2.72155 10.9569 2.81603 10.9889 2.91403 10.9993H2.98069C3.0681 10.999 3.1546 10.9815 3.23524 10.9477C3.31588 10.914 3.38908 10.8647 3.45066 10.8026L5.11722 9.13608C5.23622 9.00978 5.30133 8.84208 5.29875 8.66856C5.29616 8.49504 5.22609 8.32936 5.10338 8.20665C4.98067 8.08394 4.81498 8.01386 4.64147 8.01128C4.46795 8.0087 4.30025 8.07381 4.17395 8.19281L3.76064 8.60945C4.52826 3.88509 8.9803 0.677957 13.7043 1.44557C18.4284 2.21319 21.6362 6.66491 20.8685 11.3893C20.1869 15.5843 16.5635 18.6661 12.3134 18.6655C10.9927 18.6894 9.68567 18.394 8.50357 17.8044C7.32148 17.2148 6.29926 16.3485 5.52386 15.279C5.47308 15.2077 5.40875 15.147 5.33454 15.1005C5.26033 15.0541 5.17769 15.0226 5.09133 15.0081C5.00498 14.9936 4.91661 14.9962 4.83126 15.0158C4.74591 15.0354 4.66527 15.0716 4.59392 15.1224C4.52257 15.1731 4.46192 15.2375 4.41544 15.3117C4.36895 15.3859 4.33754 15.4685 4.32299 15.5549C4.30845 15.6412 4.31105 15.7296 4.33066 15.815C4.35026 15.9003 4.38649 15.981 4.43726 16.0523C5.33522 17.2958 6.52026 18.304 7.89155 18.9911C9.26285 19.6782 10.7798 20.0238 12.3134 19.9987C17.8361 19.9987 22.3128 15.522 22.3128 9.99936C22.3128 4.47671 17.8361 0 12.3134 0Z" fill="#9AA8D1"/>
</svg>
