<svg width="29" height="29" viewBox="0 0 29 29" fill="none" xmlns="http://www.w3.org/2000/svg">
<circle cx="14.5" cy="14.5" r="14.5" fill="#FFF6E6"/>
<path d="M14.4154 14.6022C16.7819 14.6022 18.7165 12.6677 18.7165 10.3011C18.7165 7.93455 16.7819 6 14.4154 6C12.0488 6 10.1143 7.93455 10.1143 10.3011C10.1143 12.6677 12.0488 14.6022 14.4154 14.6022ZM21.7968 18.0394C21.6841 17.7576 21.5338 17.4947 21.3648 17.2505C20.5008 15.9733 19.1673 15.1281 17.6647 14.9215C17.4769 14.9027 17.2703 14.9403 17.12 15.053C16.3312 15.6352 15.3921 15.9357 14.4154 15.9357C13.4387 15.9357 12.4996 15.6352 11.7107 15.053C11.5605 14.9403 11.3539 14.8839 11.1661 14.9215C9.66349 15.1281 8.31119 15.9733 7.466 17.2505C7.29696 17.4947 7.14669 17.7764 7.03402 18.0394C6.97768 18.1521 6.99645 18.2835 7.05278 18.3962C7.20306 18.6592 7.39086 18.9222 7.5599 19.1475C7.82284 19.5044 8.10458 19.8237 8.42389 20.1242C8.68683 20.3871 8.98734 20.6313 9.28788 20.8755C10.7717 21.9836 12.556 22.5659 14.3966 22.5659C16.2373 22.5659 18.0216 21.9836 19.5054 20.8755C19.8059 20.6501 20.1064 20.3871 20.3694 20.1242C20.6699 19.8237 20.9704 19.5044 21.2333 19.1475C21.4212 18.9034 21.5902 18.6592 21.7405 18.3962C21.8343 18.2835 21.8531 18.152 21.7968 18.0394Z" fill="#FFA500"/>
</svg>
