<svg width="29" height="29" viewBox="0 0 29 29" fill="none" xmlns="http://www.w3.org/2000/svg">
<circle cx="14.5" cy="14.5" r="14.5" fill="#E1E1E1"/>
<path d="M13.2796 17.7745C13.3533 17.8393 13.4124 17.9174 13.4534 18.0042C13.4944 18.091 13.5164 18.1847 13.5182 18.2798C13.52 18.3748 13.5015 18.4692 13.4637 18.5573C13.426 18.6454 13.3699 18.7255 13.2986 18.7927C13.2274 18.8599 13.1426 18.9129 13.0492 18.9485C12.9558 18.9841 12.8558 19.0016 12.7551 18.9999C12.6544 18.9982 12.555 18.9774 12.463 18.9387C12.371 18.9 12.2882 18.8443 12.2196 18.7747L8.21935 15.0001C8.07889 14.8674 8 14.6876 8 14.5C8 14.3124 8.07889 14.1326 8.21935 13.9999L12.2196 10.2253C12.2882 10.1557 12.371 10.0999 12.463 10.0613C12.555 10.0226 12.6544 10.0018 12.7551 10.0001C12.8558 9.99843 12.9558 10.0159 13.0492 10.0515C13.1426 10.0871 13.2274 10.1401 13.2986 10.2073C13.3699 10.2745 13.426 10.3546 13.4637 10.4427C13.5015 10.5308 13.52 10.6252 13.5182 10.7202C13.5164 10.8153 13.4944 10.909 13.4534 10.9958C13.4124 11.0826 13.3533 11.1607 13.2796 11.2255L10.5595 13.7923L20.25 13.7923C20.4489 13.7923 20.6397 13.8668 20.7803 13.9996C20.921 14.1323 21 14.3123 21 14.5C21 14.6877 20.921 14.8677 20.7803 15.0004C20.6397 15.1332 20.4489 15.2077 20.25 15.2077L10.5595 15.2077L13.2796 17.7745Z" fill="#A0A0A0"/>
</svg>
